<svg id="_레이어_2" xmlns="http://www.w3.org/2000/svg" viewBox="0 0 571.86 54.78">
  <defs>
    <style>
      .cls-1 {
        fill: #fff;
      }
    </style>
  </defs>
  <g id="_레이어_1-2">
    <g>
      <path class="cls-1" d="M505.03,0v25.81c0,.49-.68.62-.87.16L493.81,0h0s0,0,0,0h-11v54.78h11v-25.81c0-.49.68-.62.87-.16l10.36,25.97h11V0h-11Z"></path>
      <path class="cls-1" d="M571.86.02l-11.95-.02-9.53,22.08c-.19.45-.84.45-1.03,0l-9.53-22.08-11.95.02,16.5,38.24v16.52h11v-16.52L571.86.02Z"></path>
      <path class="cls-1" d="M262.66,12.85v29.09c0,1.05.85,1.89,1.91,1.89h7.41c1.05,0,1.91-.85,1.91-1.89v-2.74h11v5.03c0,5.83-4.77,10.56-10.64,10.56h-11.93c-5.88,0-10.64-4.73-10.64-10.56V10.56C251.66,4.73,256.43,0,262.3,0h11.93c5.88,0,10.64,4.73,10.64,10.56v5.03h-11v-2.74c0-1.05-.85-1.89-1.91-1.89h-7.41c-1.05,0-1.91.85-1.91,1.89Z"></path>
      <path class="cls-1" d="M319.28,0h-11.93c-5.88,0-10.64,4.73-10.64,10.56v33.66c0,5.83,4.77,10.56,10.64,10.56h11.93c5.88,0,10.64-4.73,10.64-10.56V10.56C329.93,4.73,325.16,0,319.28,0ZM318.93,41.93c0,1.05-.85,1.89-1.91,1.89h-7.41c-1.05,0-1.91-.85-1.91-1.89V12.85c0-1.05.85-1.89,1.91-1.89h7.41c1.05,0,1.91.85,1.91,1.89v29.09Z"></path>
      <g>
        <rect class="cls-1" x="135.55" y="20.04" width="11.22" height="34.74"></rect>
        <path class="cls-1" d="M93.42,0h142.78v11.46h-10.55c-.31,0-.56.25-.56.56v42.76h-11V12.01c0-.31-.25-.56-.56-.56h-38.75c-.36.34-.58.82-.58,1.35v2.91c0,1.18.07,1.19,2.02,2.68l16.3,11.71c3.77,2.89,3.9,5.28,3.9,8.03v6.06c0,5.83-4.77,10.56-10.64,10.56h-11.93c-5.88,0-10.64-4.73-10.64-10.56v-5.01h11v2.76c0,1.05.85,1.89,1.91,1.89h7.41c1.05,0,1.91-.85,1.91-1.89v-2.91c0-1.18-.07-1.19-2.02-2.68l-16.3-11.71c-3.77-2.89-3.9-5.28-3.9-8.03v-5.17h-47.12c-.31,0-.56.25-.56.56v42.76h-11V12.01c0-.31-.25-.56-.56-.56h-10.55V0Z"></path>
      </g>
      <path class="cls-1" d="M22.58,0h-11.93C4.77,0,0,4.73,0,10.56v5.03h11v-2.78c0-1.05.85-1.89,1.91-1.89h7.41c1.05,0,1.91.85,1.91,1.89v8.58c0,.3-.25.55-.55.55h-11.03c-5.88,0-10.64,4.73-10.64,10.56v11.73c0,5.83,4.77,10.56,10.64,10.56h22.58V10.56c0-5.83-4.77-10.56-10.64-10.56ZM16.61,45.58c-3.99,0-7.23-3.24-7.23-7.23s3.24-7.23,7.23-7.23,7.23,3.24,7.23,7.23-3.24,7.23-7.23,7.23Z"></path>
      <path class="cls-1" d="M457.03,0h-11.93c-5.88,0-10.64,4.73-10.64,10.56v5.03h11v-2.78c0-1.05.85-1.89,1.91-1.89h7.41c1.05,0,1.91.85,1.91,1.89v8.58c0,.3-.25.55-.55.55h-11.03c-5.88,0-10.64,4.73-10.64,10.56v11.73c0,5.83,4.77,10.56,10.64,10.56h22.58V10.56c0-5.83-4.77-10.56-10.64-10.56ZM451.07,45.58c-3.99,0-7.23-3.24-7.23-7.23s3.24-7.23,7.23-7.23,7.23,3.24,7.23,7.23-3.24,7.23-7.23,7.23Z"></path>
      <path class="cls-1" d="M73.64,32.5h0c4.58-1.19,7.96-5.31,7.96-10.22v-11.72c0-5.83-4.77-10.56-10.64-10.56l-22.58.02v54.75h11v-23.4c0-.69.93-.92,1.25-.31l.96,1.78,11.88,21.93h12.23s-12.07-22.27-12.07-22.27ZM64.9,23.7c-3.99,0-7.23-3.24-7.23-7.23s3.24-7.23,7.23-7.23,7.23,3.24,7.23,7.23-3.24,7.23-7.23,7.23Z"></path>
      <g>
        <rect class="cls-1" x="400.36" y="32.84" width="0" height="21.92"></rect>
        <rect class="cls-1" x="389.36" y="54.76" width="11" height=".02"></rect>
        <path class="cls-1" d="M411.94,0h-24.12l-14.59,39.83c-.18.49-.88.49-1.05,0L357.58,0h-12.55v54.76h11v-27.77c0-.5.7-.62.87-.15l10.23,27.94h11.12l10.24-27.94c.17-.47.87-.35.87.15v27.77h11v-21.92h11.58c5.88,0,10.64-4.73,10.64-10.56v-11.73C422.58,4.73,417.82,0,411.94,0ZM405.97,23.66c-2.27,0-4.29-1.04-5.61-2.67-1.01-1.24-1.62-2.83-1.62-4.55s.61-3.31,1.62-4.55c1.33-1.63,3.35-2.67,5.61-2.67,3.99,0,7.23,3.24,7.23,7.23s-3.24,7.23-7.23,7.23Z"></path>
      </g>
    </g>
  </g>
</svg>