<svg xmlns="http://www.w3.org/2000/svg" width="177.108" height="60.581" viewBox="0 0 177.108 60.581">
  <g transform="translate(74.262 6.763)">
    <path d="M164.756,39.168h-4.062v4.9h4.062a2.457,2.457,0,1,0,0-4.9m-.249-8.207h-3.812v4.594h3.812a2.265,2.265,0,0,0,2.578-2.3c0-1.372-.927-2.3-2.578-2.3m.642,16.473H156.8V27.484h8.012c3.895,0,6.164,2.188,6.164,5.605a4.6,4.6,0,0,1-2.467,4.117,4.637,4.637,0,0,1,2.745,4.484c0,3.725-2.548,5.743-6.107,5.743" transform="translate(-156.801 -27.316)" fill="#1a8a3a"/>
    <path d="M200.94,31.7a3.231,3.231,0,0,0-2.492-1.065,3.3,3.3,0,0,0-2.522,1.065c-.756.842-.952,1.765-.952,5.6s.2,4.763.952,5.6a3.3,3.3,0,0,0,2.522,1.065,3.222,3.222,0,0,0,2.492-1.065c.758-.84.981-1.765.981-5.6s-.223-4.762-.981-5.6m2.886,13.56a7.745,7.745,0,0,1-10.786,0c-2.017-2.017-1.961-4.509-1.961-7.956s-.056-5.939,1.961-7.958a7.748,7.748,0,0,1,10.786,0c2.02,2.019,1.989,4.512,1.989,7.958s.03,5.939-1.989,7.956" transform="translate(-173.231 -27.162)" fill="#1a8a3a"/>
  </g>
  <path d="M227.246,47.434V27.484h13.142v3.477h-9.246v4.678h7.874v3.473h-7.874v4.847h9.246v3.474Z" transform="translate(-116.306 -20.553)" fill="#1a8a3a"/>
  <g transform="translate(127.642 6.931)">
    <path d="M266.889,30.961h-3.671v5.267h3.671a2.64,2.64,0,1,0,0-5.267m3.025,16.473-3.892-7.956h-2.8v7.956h-3.892V27.484h7.818c4.059,0,6.47,2.774,6.47,6.108a5.367,5.367,0,0,1-3.643,5.239l4.456,8.6Z" transform="translate(-259.325 -27.484)" fill="#1a8a3a"/>
  </g>
  <path d="M293.83,47.434V27.484h13.142v3.477h-9.248v4.678H305.6v3.473h-7.875v4.847h9.248v3.474Z" transform="translate(-148.222 -20.553)" fill="#1a8a3a"/>
  <path d="M336.8,47.434l-7.9-12.243V47.434H325V27.484h3.472l7.9,12.216V27.484h3.894v19.95Z" transform="translate(-163.165 -20.553)" fill="#1a8a3a"/>
  <g transform="translate(74.261 31.956)">
    <path d="M164.2,86.408h-5.884v8.179H164.2c2.717,0,4.512-1.54,4.512-4.09s-1.794-4.089-4.512-4.089m-.225-9.191h-5.659v7.733h5.659c2.412,0,4.428-1.122,4.428-3.866s-2.016-3.867-4.428-3.867m.394,18.6H156.8V75.871h7.339c3.308,0,5.771,1.909,5.771,5.213a4.575,4.575,0,0,1-3.109,4.481,4.859,4.859,0,0,1,3.419,4.818c0,3.56-2.328,5.437-5.854,5.437" transform="translate(-156.8 -75.703)" fill="#1a8a3a"/>
    <path d="M199.2,78.435a5.416,5.416,0,0,0-7.566,0c-1.429,1.43-1.54,2.97-1.54,7.258s.111,5.827,1.54,7.255a5.405,5.405,0,0,0,7.566,0c1.428-1.428,1.54-2.969,1.54-7.255s-.112-5.827-1.54-7.258m1.2,15.355a7.1,7.1,0,0,1-9.973,0c-1.823-1.82-1.85-3.586-1.85-8.1s.027-6.276,1.85-8.1a7.1,7.1,0,0,1,9.973,0c1.821,1.82,1.849,3.585,1.849,8.1s-.029,6.277-1.849,8.1" transform="translate(-172.034 -75.549)" fill="#1a8a3a"/>
  </g>
  <path d="M235.813,95.821,224.3,78.477V95.821h-1.516V75.871H224.3l11.515,17.29V75.871h1.511v19.95Z" transform="translate(-114.166 -43.747)" fill="#1a8a3a"/>
  <path d="M269.94,78.759a5.728,5.728,0,0,0-4.288-1.541h-4.819V94.474h4.819a5.733,5.733,0,0,0,4.288-1.54c1.6-1.625,1.481-5.155,1.481-7.368s.115-5.184-1.481-6.807M271,94a6.9,6.9,0,0,1-4.989,1.821h-6.694V75.871h6.694A6.89,6.89,0,0,1,271,77.7c2.017,2.014,1.933,5.181,1.933,7.87S273.021,91.984,271,94" transform="translate(-131.681 -43.747)" fill="#1a8a3a"/>
  <path d="M44.465,71.7A27.239,27.239,0,0,1,43.07,17.261q.693-.036,1.395-.036a27.239,27.239,0,0,1,1.418,54.44c-.47.023-.942.037-1.418.037m0-57.529a30.29,30.29,0,1,0,30.29,30.291,30.292,30.292,0,0,0-30.29-30.291" transform="translate(-14.173 -14.173)" fill="#1a8a3a"/>
  <path d="M68.711,69.8a18.674,18.674,0,0,0,1.818-2.548A25.249,25.249,0,0,0,74.388,53.8c0-.028,0-.054,0-.082,0-.787-.044-1.565-.115-2.333h-.011c-.021,0-.15-.017-.39-.035l-.024,0a35.56,35.56,0,0,0-5.194.04c-1.115.081-2.372.218-3.738.43A11.685,11.685,0,0,0,66.287,46.3a12.723,12.723,0,0,0-1.93-7.139c-2.15-3.26-5.993-5.084-10.993-5.425-.574-.039-1.161-.06-1.763-.06H45.733l-.145.06-3.549,1.477L38.08,36.862l0,0H51.6c6.783,0,10.4,3.8,10.4,9.439a7.871,7.871,0,0,1-3.571,6.466c.166.1.353.22.555.355l0,0a7.3,7.3,0,0,1,3.389,5.451,10.241,10.241,0,0,1,.085,1.293,11.277,11.277,0,0,1-.382,2.959l0,.014a8.557,8.557,0,0,1-2.094,3.749l-.008.007a10.46,10.46,0,0,1-7.69,2.894H38.076V52.688q-.5-.119-.99-.227a48.421,48.421,0,0,0-12.906-1.1l-.066,0-.023,0c-.26.018-.4.033-.4.033-.074.793-.117,1.6-.117,2.408A25.721,25.721,0,0,0,23.7,56.4,25.359,25.359,0,0,0,45.084,78.9l.065.009q.437.066.878.118l.129.015c.281.031.562.059.845.08l.166.01c.276.02.554.037.833.047.037,0,.076,0,.114,0,.284.009.569.018.855.018q.792,0,1.572-.048A25.334,25.334,0,0,0,68.7,69.8l.006,0" transform="translate(-18.678 -23.522)" fill="#1a8a3a"/>
  <path d="M74.73,56.274c0-1.284-.687-2.656-2.891-2.656h-5v5.314h5c2.2,0,2.891-1.374,2.891-2.659" transform="translate(-39.419 -33.08)" fill="#1a8a3a"/>
  <path d="M66.842,79.981v3.395h5.41a2.7,2.7,0,0,0,2.934-2.888,3.539,3.539,0,0,0-.112-.885l0-.015a2.521,2.521,0,0,0-.784-1.288l-.007-.005a3.019,3.019,0,0,0-2.027-.645H71.3l-.037,0h-.914l0,0h-3.51Z" transform="translate(-39.419 -44.599)" fill="#1a8a3a"/>
</svg>
