<?xml version="1.0" encoding="UTF-8"?>
<svg version="1.1" viewBox="0 0 896.46 503.75" xmlns="http://www.w3.org/2000/svg">
 <g transform="translate(-565.83)">
  <path d="m566.25 162.19v341.56h24.583v-20.937h12.031v20.937h21.614v-26.458h12.031v26.458h21.094v-37.708h12.031v37.708h21.406v-61.822h12.031v61.822h21.458v-97.395h12.031v97.395h21.042v-153.23h12.083v153.23h21.823v-225.16h11.979v225.16h21.562v-153.12h12.031v153.12h21.094v-97.239h11.979v97.239h21.458v-62.031h12.031v62.031h21.458v-37.916h12.031v37.916h21.042v-26.614h12.031v26.614h21.614v-20.833h12.031v20.833h21.042v-20.989h12.083v20.989h21.562v-26.666h12.031v26.666h21.094v-37.968h12.031v37.968h21.406v-62.083h12.083v62.083h21.406v-97.448h12.031v97.448h21.042v-153.28h12.083v153.28h21.823v-225.26h12.031v225.26h21.51v-153.23h12.031v153.23h21.094v-97.5h12.031v97.5h21.406v-62.083h12.031v62.083h21.458v-37.968h12.031v37.968h21.042v-26.562h12.083v26.562h21.562v-20.885h12.031v20.885h23.854v-341.56h-895.52" fill="#004563"/>
  <path d="m650.63 135.05v-97.448h18.281l0.208 97.448h-18.49" fill="#bf1e30"/>
  <path d="m771.93 85.573c0-25.364 0.469-49.271 21.511-49.323 15.26 0 20.364 14.74 19.896 35.312l-16.094-0.208c0-12.031-0.677-16.302-3.802-16.302-2.7084 0-5.2084 5.9374-5 30.521 0.208 24.636 1.1973 32.136 5.677 32.136 3.3854 0 3.5416-11.042 3.6979-18.646h16.146c0 25.625-5.1042 36.615-20.573 36.615-20.99 0-21.458-25.052-21.458-50.104" fill="#bf1e30"/>
  <path d="m841.93 85.99c0-25.364-0.26-48.958 21.875-48.958 21.771 0 22.24 23.594 22.24 48.958 0 26.927-1.1987 49.688-22.188 49.688-22.031 0-21.927-24.375-21.927-49.688zm27.813 0.625c0-24.583-1.4583-31.771-5.8334-31.771-4.2186 0-5.677 6.1457-5.677 30.729 0 24.531 1.6666 32.604 5.8854 32.136 3.125-0.312 5.625-5.2084 5.625-31.094" fill="#bf1e30"/>
  <path d="m1058.9 100.42-15.833-62.292 18.385-0.208 6.6667 33.229 7.0833-33.229 17.76 0.208-16.719 61.823v34.323h-17.552l0.208-33.854" fill="#bf1e30"/>
  <path d="m1135.4 135.68c-18.49 0-20.364-18.438-19.687-34.271l16.094 0.208c0 8.75-0.416 16.094 5.4688 16.094 2.4479 0 3.6979-2.4478 3.6979-8.5937 0-14.792-24.427-17.448-24.427-44.635 0-14.271 4.3751-27.604 21.51-27.604 14.219 0 19.427 12.448 18.594 31.562l-15.885-0.208c0-6.8749 0.208-13.594-3.9584-13.594-2.0833 0-3.9583 1.4063-3.9583 7.7084 0 15.885 24.427 15.677 24.427 44.375 0 23.594-11.146 28.958-21.875 28.958" fill="#bf1e30"/>
  <path d="m1227.5 38.073-0.208 19.74h-13.386v76.094h-16.875v-76.094h-13.49v-19.896l43.958 0.156" fill="#bf1e30"/>
  <path d="m1256.7 133.8v-95.364h35.833v18.073h-19.219l-0.208 18.489h17.969v18.073h-18.177v22.604h20.26l0.208 18.125h-36.667" fill="#bf1e30"/>
  <path d="m1328 134.27v-96.042l21.927 0.107 8.177 54.531 8.802-54.531 21.302-0.208v95.886l-14.219 0.26-0.208-57.083-9.0104 57.083h-13.594l-8.3333-56.875-0.208 56.615-14.635 0.26" fill="#bf1e30"/>
  <path d="m1440.5 135.68c-18.542 0-20.365-18.438-19.74-34.271l16.094 0.208c0 8.75-0.416 16.094 5.4688 16.094 2.5 0 3.75-2.4478 3.75-8.5937 0-14.792-24.479-17.448-24.479-44.635 0-14.271 4.3751-27.604 21.562-27.604 14.167 0 19.375 12.448 18.542 31.562l-15.833-0.208c0-6.8749 0.208-13.594-4.0104-13.594-2.0833 0-3.9583 1.4063-3.9583 7.7084 0 15.885 24.427 15.677 24.427 44.375 0 23.594-11.094 28.958-21.823 28.958" fill="#bf1e30"/>
  <path d="m719.69 135.94c-18.49 0-20.365-18.49-19.74-34.323l16.094 0.208c0 8.75-0.416 16.094 5.5208 16.094 2.4479 0 3.6979-2.3957 3.6979-8.5937 0-14.792-24.427-17.448-24.427-44.635 0-14.271 4.3751-27.604 21.51-27.604 14.219 0 19.375 12.448 18.594 31.51l-15.886-0.156c0-6.8229 0.208-13.594-3.9584-13.594-2.0833 0-3.9583 1.4062-3.9583 7.7083 0 15.885 24.427 15.677 24.427 44.323 0 23.646-11.146 29.062-21.875 29.062" fill="#bf1e30"/>
  <path d="m565.83 68.594c0-34.479 0-67.344 28.646-67.344 17.656 0 24.792 15.365 24.114 43.333h-16.979c0-17.292-1.9792-23.802-7.1355-23.802-9.7916 0-11.042 14.427-11.042 47.812 0 33.438 1.2493 47.864 11.042 47.864 8.0208 0 7.7084-16.25 7.9167-26.51h17.135c0 34.844-8.8542 46.042-25.052 46.042-28.646 0-28.646-33.229-28.646-67.396" fill="#bf1e30"/>
  <path d="m992.86 134.74c-21.51 0-25.521-19.896-24.583-42.448h17.344c0 12.448 0.312 22.917 9.8959 22.917 5.8333 0 8.6979-5.9374 8.6979-14.792 0-23.49-34.896-24.896-34.896-63.75 0-20.417 6.198-36.667 27.344-36.667 16.875 0 25.26 11.927 24.115 39.219h-16.875c0-9.7916-1.0413-19.688-8.0729-19.688-5.6249 0-8.9583 4.8437-8.9583 13.906 0 24.74 34.948 22.552 34.948 63.542 0 33.75-15.729 37.76-28.958 37.76" fill="#bf1e30"/>
 </g>
</svg>
