<?xml version="1.0" encoding="UTF-8"?>
<svg xmlns="http://www.w3.org/2000/svg" xmlns:xlink="http://www.w3.org/1999/xlink" width="860" height="116" viewBox="0 0 1666 225" version="1.1">
<g id="surface1">
<path style=" stroke:none;fill-rule:nonzero;fill:rgb(0%,0%,0%);fill-opacity:1;" d="M 1271.265625 87.683594 C 1290.503906 95.195312 1316.304688 98.3125 1335.984375 104.359375 C 1358.539062 111.289062 1377.058594 124.792969 1376.976562 156.363281 C 1376.894531 193.964844 1349.800781 225.179688 1296.203125 224.964844 C 1275.722656 225.128906 1248.125 216.757812 1230.589844 206.125 L 1226.164062 153.542969 L 1231.433594 153.566406 C 1238.222656 190.234375 1263.324219 213.519531 1299.746094 213.667969 C 1327.859375 213.785156 1350.3125 200.683594 1355.46875 175.632812 C 1362.503906 141.433594 1336.785156 133.023438 1330.230469 130.6875 C 1313.59375 124.726562 1288.152344 121.417969 1265.617188 113.953125 C 1241.335938 105.902344 1224.953125 90.480469 1225.011719 63.039062 C 1225.105469 24.175781 1260.664062 0.40625 1306.339844 0.738281 C 1334.371094 0.941406 1357.152344 10.199219 1360.574219 12.085938 L 1364.136719 58.207031 L 1359.515625 58.207031 C 1354.09375 28.378906 1330.890625 11.324219 1301.183594 11.207031 C 1268.707031 11.082031 1249.398438 30.414062 1246.796875 48.851562 C 1243.726562 70.765625 1256.371094 81.894531 1271.253906 87.707031 Z M 46.234375 87.707031 C 31.34375 81.894531 18.710938 70.765625 21.785156 48.851562 C 24.386719 30.414062 43.703125 11.082031 76.171875 11.207031 C 105.875 11.324219 129.074219 28.378906 134.496094 58.207031 L 139.117188 58.207031 L 135.558594 12.085938 C 132.132812 10.195312 109.339844 0.9375 81.324219 0.738281 C 35.648438 0.417969 0.0859375 24.1875 0 63.039062 C -0.0703125 90.480469 16.320312 105.902344 40.59375 113.953125 C 63.132812 121.417969 88.570312 124.726562 105.214844 130.6875 C 111.765625 133.023438 137.488281 141.433594 130.453125 175.632812 C 125.292969 200.679688 102.84375 213.785156 74.726562 213.667969 C 38.304688 213.519531 13.207031 190.234375 6.414062 153.566406 L 1.148438 153.542969 L 5.566406 206.132812 C 23.09375 216.761719 50.695312 225.132812 71.191406 224.96875 C 124.785156 225.191406 151.878906 193.960938 151.957031 156.367188 C 152.035156 124.796875 133.523438 111.292969 110.964844 104.363281 C 91.289062 98.316406 65.488281 95.203125 46.246094 87.6875 Z M 1644.113281 23.207031 C 1644.113281 8.710938 1656.949219 9.238281 1665.457031 9.238281 L 1665.457031 4.535156 L 1596.453125 4.535156 L 1596.453125 9.238281 C 1605.019531 9.238281 1617.847656 8.714844 1617.847656 23.207031 L 1617.796875 203.261719 C 1617.796875 217.769531 1604.957031 217.230469 1596.453125 217.230469 L 1596.453125 221.933594 L 1665.445312 221.933594 L 1665.445312 217.230469 C 1656.878906 217.230469 1644.039062 217.769531 1644.039062 203.261719 Z M 1040.675781 36.617188 L 1107.992188 221.929688 L 1127.949219 221.929688 L 1193.910156 31.664062 C 1201 11.230469 1210.4375 9.222656 1224.027344 9.222656 L 1224.027344 4.53125 L 1158.621094 4.53125 L 1158.621094 9.222656 C 1163.808594 8.996094 1169.003906 9.355469 1174.109375 10.285156 C 1183.261719 12.5625 1183.773438 20.457031 1183.042969 25.859375 C 1182.078125 30.816406 1180.671875 35.671875 1178.832031 40.375 L 1126.203125 193.902344 L 1125.578125 193.902344 L 1073.203125 49.71875 C 1070.175781 42.113281 1067.832031 34.253906 1066.210938 26.230469 C 1065.089844 18.675781 1067.789062 13.847656 1071.148438 11.753906 C 1074.425781 9.71875 1077.621094 9.242188 1085.601562 9.242188 L 1085.601562 4.546875 L 1009.527344 4.546875 L 1009.527344 9.242188 C 1027.210938 9.242188 1033.496094 16.84375 1040.675781 36.625 Z M 499.324219 25.722656 C 502.554688 16.707031 499.214844 12.171875 494.222656 10.351562 C 490.875 9.417969 487.394531 9.046875 483.925781 9.25 L 483.925781 4.550781 L 525.976562 4.550781 L 595.855469 189.875 C 603.40625 208.75 608.671875 217.257812 627.359375 217.257812 L 627.359375 221.949219 L 551.28125 221.949219 L 551.28125 217.257812 C 559.261719 217.257812 562.453125 216.789062 565.695312 214.746094 C 569.035156 212.652344 571.660156 207.824219 570.453125 200.269531 C 568.722656 192.234375 566.277344 184.375 563.148438 176.777344 L 552.3125 147.992188 L 467.300781 147.992188 L 453.773438 186.089844 C 451.875 190.785156 450.410156 195.644531 449.394531 200.605469 C 448.59375 206.007812 449.011719 213.894531 458.132812 216.183594 C 463.21875 217.105469 468.390625 217.457031 473.558594 217.234375 L 473.558594 221.925781 L 408.171875 221.925781 L 408.171875 217.234375 C 421.757812 217.234375 431.304688 215.09375 438.582031 194.804688 L 499.3125 25.703125 Z M 548.402344 137.605469 L 508.886719 32.566406 L 508.257812 32.566406 L 470.980469 137.605469 Z M 691.597656 122.695312 L 691.597656 123.269531 L 779.082031 221.921875 L 825.480469 221.921875 L 825.480469 217.222656 C 816.332031 217.222656 802.570312 212.265625 788.777344 196.769531 L 728.410156 128.878906 C 766.960938 124.582031 799.484375 104.402344 799.484375 63.410156 C 799.484375 28.800781 771.882812 4.523438 719.941406 4.523438 L 638.371094 4.523438 L 638.371094 9.226562 C 646.945312 9.226562 659.78125 8.691406 659.78125 23.195312 L 659.714844 203.253906 C 659.714844 217.75 646.875 217.222656 638.371094 217.222656 L 638.371094 221.921875 L 707.382812 221.921875 L 707.382812 217.222656 C 698.8125 217.222656 685.972656 217.746094 685.972656 203.253906 L 686.03125 14.328125 L 702.964844 14.328125 C 723.769531 14.328125 773.925781 13.316406 773.925781 65.484375 C 773.925781 119.691406 723.773438 122.695312 702.964844 122.695312 Z M 1433.714844 23.195312 C 1433.714844 8.699219 1446.542969 9.226562 1455.046875 9.226562 L 1455.046875 4.519531 L 1386.046875 4.519531 L 1386.046875 9.226562 C 1394.613281 9.226562 1407.453125 8.699219 1407.453125 23.195312 L 1407.390625 203.25 C 1407.390625 217.753906 1394.550781 217.21875 1386.046875 217.21875 L 1386.046875 221.921875 L 1455.046875 221.921875 L 1455.046875 217.21875 C 1446.480469 217.21875 1433.652344 217.753906 1433.652344 203.25 Z M 1548.210938 199.703125 L 1462.773438 102.414062 C 1462.773438 102.414062 1525.058594 34.347656 1531.691406 27.207031 C 1541.265625 16.808594 1550.929688 9.226562 1570.671875 9.226562 L 1570.671875 4.523438 L 1499.101562 4.523438 L 1499.101562 9.226562 C 1501.136719 9.226562 1512.351562 9.03125 1516.082031 10.339844 C 1523.179688 12.824219 1524.144531 19.976562 1515.382812 29.585938 L 1438.890625 112.964844 L 1438.890625 113.246094 L 1533.40625 221.925781 L 1579.351562 221.925781 L 1579.351562 217.234375 C 1569.027344 217.234375 1556.035156 208.609375 1548.210938 199.703125 Z M 393.160156 4.53125 L 393.160156 9.234375 C 398.347656 9.003906 403.542969 9.359375 408.652344 10.285156 C 417.8125 12.566406 418.714844 20.460938 417.996094 25.863281 C 417.078125 30.8125 415.714844 35.667969 413.925781 40.375 L 361.304688 193.90625 L 360.710938 193.90625 L 312.265625 49.703125 C 309.414062 42.085938 307.273438 34.226562 305.859375 26.21875 C 304.945312 18.667969 307.757812 13.828125 311.175781 11.734375 C 314.589844 9.644531 317.871094 9.25 325.648438 9.234375 L 325.648438 4.53125 L 250.292969 4.53125 L 250.292969 9.234375 C 267.976562 9.234375 274.027344 16.824219 280.703125 36.601562 L 298.914062 91.070312 L 264.285156 193.898438 L 263.691406 193.898438 L 214.484375 49.699219 C 211.59375 42.085938 209.402344 34.226562 207.9375 26.21875 C 206.984375 18.664062 209.777344 13.824219 213.171875 11.734375 C 216.492188 9.695312 219.742188 9.230469 227.714844 9.230469 L 227.714844 4.527344 L 151.886719 4.527344 L 151.886719 9.230469 C 169.570312 9.230469 175.671875 16.824219 182.457031 36.601562 L 245.492188 221.921875 L 265.707031 221.921875 L 304.289062 107.132812 L 342.652344 221.925781 L 362.875 221.925781 L 428.351562 31.660156 C 435.339844 11.316406 444.976562 9.230469 458.570312 9.230469 L 458.570312 4.527344 Z M 924.929688 0.699219 C 995.953125 0.699219 1024.140625 61.035156 1024.140625 110.160156 C 1024.140625 168.109375 983.488281 225 920.226562 225 C 855.839844 225 820.015625 174.492188 820.015625 113.535156 C 820.015625 47.570312 868.636719 0.699219 924.929688 0.699219 Z M 857.84375 160.300781 C 869.449219 181.570312 885.941406 197.382812 904.589844 205.21875 C 921.292969 212.09375 940 212.261719 956.824219 205.6875 C 998.148438 189.148438 999.402344 136.074219 999.683594 130.300781 C 1001.835938 87.445312 983.300781 42.855469 949.1875 24.316406 C 931.066406 14.484375 903.140625 10.375 878.242188 24.628906 C 860.445312 34.8125 843.984375 54.941406 841.8125 93.382812 C 840.824219 116.746094 846.378906 139.921875 857.851562 160.296875 "/>
</g>
</svg>
