<?xml version="1.0" encoding="UTF-8" standalone="no"?>
<!-- Created with Inkscape (http://www.inkscape.org/) -->

<svg
   xmlns:dc="http://purl.org/dc/elements/1.1/"
   xmlns:cc="http://creativecommons.org/ns#"
   xmlns:rdf="http://www.w3.org/1999/02/22-rdf-syntax-ns#"
   xmlns:svg="http://www.w3.org/2000/svg"
   xmlns="http://www.w3.org/2000/svg"
   xmlns:sodipodi="http://sodipodi.sourceforge.net/DTD/sodipodi-0.dtd"
   xmlns:inkscape="http://www.inkscape.org/namespaces/inkscape"
   width="3000"
   height="450.5415"
   viewBox="0 0 3000 450.54149"
   id="svg2"
   version="1.1"
   inkscape:version="0.91 r13725"
   sodipodi:docname="blacklg.svg">
  <title
     id="title4186">Swarovski</title>
  <defs
     id="defs4" />
  <sodipodi:namedview
     id="base"
     pagecolor="#ffffff"
     bordercolor="#666666"
     borderopacity="1.0"
     inkscape:pageopacity="0.0"
     inkscape:pageshadow="2"
     inkscape:zoom="0.27297297"
     inkscape:cx="1500"
     inkscape:cy="225.27075"
     inkscape:document-units="px"
     inkscape:current-layer="layer1"
     showgrid="false"
     inkscape:showpageshadow="false"
     fit-margin-top="20"
     fit-margin-right="20"
     fit-margin-bottom="20"
     fit-margin-left="20.3"
     units="px"
     inkscape:window-width="1366"
     inkscape:window-height="715"
     inkscape:window-x="-8"
     inkscape:window-y="-8"
     inkscape:window-maximized="1" />
  <metadata
     id="metadata7">
    <rdf:RDF>
      <cc:Work
         rdf:about="">
        <dc:format>image/svg+xml</dc:format>
        <dc:type
           rdf:resource="http://purl.org/dc/dcmitype/StillImage" />
        <dc:title>Swarovski</dc:title>
      </cc:Work>
    </rdf:RDF>
  </metadata>
  <g
     inkscape:label="Capa 1"
     inkscape:groupmode="layer"
     id="layer1"
     transform="translate(1257.6194,-794.0049)">
    <g
       id="g4137"
       transform="matrix(11.468601,0,0,11.468601,-1237.6194,814.0049)"
       style="fill:#000000;stroke:none">
      <path
         id="path4139"
         d="M 12.666,14.943 C 6.383,13.601 3.879,12.836 3.879,8.966 c 0,-3.947 3.32,-6.969 8.836,-6.969 3.91,0 7.998,2.568 8.719,7.248 L 22.217,9.243 22.012,1.772 C 19.84,0.584 15.68,0 13.533,0 5.312,0 0,4.625 0,9.945 c 0,6.557 4.75,8.225 13.533,10.053 3.525,0.75 6.492,1.781 6.492,6.086 0,5.576 -4.756,7.715 -8.484,7.715 -5.336,0 -9.006,-3.697 -10.234,-8.855 l -0.793,0 0.305,8.33 c 2.979,1.807 6.125,2.523 9.293,2.523 9.5,0 13.787,-5.049 13.787,-11.016 -0.001,-7.148 -4.852,-8.49 -11.233,-9.838 z"
         inkscape:connector-curvature="0"
         style="fill:#000000;stroke:none" />
      <path
         id="path4141"
         d="m 120.662,30.641 -9.209,-12.469 c 5.553,-0.271 9.68,-3.98 9.68,-9.467 0,-4.463 -3.893,-8.168 -11.238,-8.168 l -12.76,0 -0.002,0.752 0.002,0 c 1.189,0 2.605,0.266 2.605,2.258 l 0,28.705 c 0,0.006 0,0.01 0,0.014 -0.01,2.242 -1.824,2.242 -2.607,2.242 l 0,0.754 0.002,0 10.213,0 0,-0.754 c -0.826,0 -2.604,0 -2.604,-2.258 l 0,-29.715 2.752,0 c 6.238,0 8.979,2.484 8.979,7.043 0,4.105 -1.822,7.672 -10.475,7.672 l 12.74,18.012 6.553,0 0.004,-0.754 c -1.463,0 -3.106,-1.824 -4.635,-3.867 z"
         inkscape:connector-curvature="0"
         style="fill:#000000;stroke:none" />
      <path
         id="path4143"
         d="m 69.064,1.289 -0.002,-0.752 -9.402,0 0,0.752 c 3.412,0 4.203,1.342 2.982,5.539 -0.477,1.645 -6.84,23.582 -6.84,23.582 l -0.102,0 c 0,0 -6.779,-22.467 -7.309,-24.283 -0.705,-2.414 -1.889,-4.838 2.293,-4.838 l 0,-0.752 -11.94,0 0,0.752 c 1.92,0 3.314,0.59 3.975,2.42 0.414,1.127 2.945,8.457 2.945,9.43 0,0.967 -3.121,11.281 -4.705,16.814 l -0.102,-0.002 c 0,0 -6.836,-21.941 -7.584,-24.357 -0.367,-1.195 -0.719,-1.932 -0.719,-2.729 0,-1.053 0.719,-1.576 2.42,-1.576 l 0,-0.752 -10.261,0 0,0.752 c 2.311,0 2.895,1.506 3.506,3.441 l 9.867,30.855 3.422,0 5.352,-19.727 0.1,0 5.824,19.727 3.59,0 L 65.24,5 c 0.666,-2.365 2.205,-3.711 3.824,-3.711 z"
         inkscape:connector-curvature="0"
         style="fill:#000000;stroke:none" />
      <path
         id="path4145"
         d="M 91.307,30.152 80.545,0.539 74.406,0.537 l 0,0.752 c 0.785,0 1.727,0.229 1.732,1.572 0,0.463 -0.164,1.141 -0.408,1.869 -0.154,0.465 -9.09,26.229 -9.09,26.229 -1.018,2.959 -1.828,3.549 -3.975,3.549 l -0.004,0.754 9.109,0 0,-0.754 c -2.463,0 -3.191,-0.947 -3.195,-1.754 0,-0.752 0.262,-1.738 0.771,-3.193 l 2.59,-7.775 11.639,0 2.215,6.271 c 1.074,2.959 1.414,3.871 1.414,4.84 0,1.021 -0.473,1.611 -2.588,1.611 l 0,0.754 10.454,0 0,-0.754 c -2.302,0 -2.437,-0.752 -3.763,-4.356 z m -18.69,-10.34 5.133,-14.794 0.102,0 5.053,14.795 -10.288,0 z"
         inkscape:connector-curvature="0"
         style="fill:#000000;stroke:none" />
      <path
         id="path4147"
         d="m 141.654,0 c -7.912,0 -16.75,7.469 -16.75,18.008 0,9.73 5.719,17.789 15.986,17.789 10.109,0 16.594,-9.08 16.594,-18.33 C 157.484,9.625 152.99,0 141.654,0 Z m 0.848,33.09 c -7.111,0 -13.52,-9.396 -13.52,-16.99 0,-10.727 6.533,-13.145 10.73,-13.145 6.951,0 13.074,7.041 13.074,16.449 -0.003,8.551 -3.641,13.686 -10.284,13.686 z"
         inkscape:connector-curvature="0"
         style="fill:#000000;stroke:none" />
      <path
         id="path4149"
         d="m 241.559,32.412 -14.25,-16.229 c 0,0 9.945,-10.852 11.035,-12.027 1.527,-1.656 2.816,-2.867 4.932,-2.867 l 0,-0.752 -9.869,0 0,0.752 c 4.234,0 2.938,2.057 2.197,2.867 -0.742,0.807 -12.59,13.744 -12.59,13.744 l 15.107,17.361 6.854,0 0,-0.754 c -1.53,0.001 -2.346,-0.806 -3.416,-2.095 z"
         inkscape:connector-curvature="0"
         style="fill:#000000;stroke:none" />
      <path
         id="path4151"
         d="m 258.096,1.289 0,-0.752 -10.215,0 0,0.752 c 0.828,0 2.605,0 2.605,2.258 l 0,28.703 c 0,2.258 -1.82,2.258 -2.605,2.258 l 0,0.754 10.215,0 0,-0.754 c -0.826,0 -2.602,0 -2.602,-2.256 l 0,-28.705 c 0,-2.258 1.776,-2.258 2.602,-2.258 z"
         inkscape:connector-curvature="0"
         style="fill:#000000;stroke:none" />
      <path
         id="path4153"
         d="m 222.41,32.252 0,-28.705 c 0,-2.258 1.775,-2.258 2.6,-2.258 l 0,-0.752 -10.213,0 0,0.752 c 0.828,0 2.607,0 2.607,2.258 l 0,28.705 c 0,2.256 -1.82,2.256 -2.607,2.256 l 0,0.754 10.213,0 0,-0.754 c -0.824,0 -2.6,0 -2.6,-2.256 z"
         inkscape:connector-curvature="0"
         style="fill:#000000;stroke:none" />
      <path
         id="path4155"
         d="m 199.854,14.943 c -6.281,-1.342 -8.785,-2.107 -8.785,-5.977 0,-3.947 3.32,-6.969 8.836,-6.969 3.912,0 8,2.568 8.717,7.248 l 0.783,0 -0.201,-7.473 C 207.027,0.584 202.867,0 200.725,0 192.5,0 187.192,4.625 187.192,9.945 c 0,6.557 4.748,8.225 13.533,10.053 3.523,0.75 6.486,1.781 6.486,6.086 0,5.576 -4.752,7.715 -8.479,7.715 -5.334,0 -9.008,-3.697 -10.236,-8.855 l -0.799,0 0.312,8.33 c 2.98,1.807 6.127,2.523 9.291,2.523 9.5,0 13.787,-5.049 13.787,-11.016 0.001,-7.15 -4.849,-8.49 -11.233,-9.838 z"
         inkscape:connector-curvature="0"
         style="fill:#000000;stroke:none" />
      <path
         id="path4157"
         d="m 187.592,0.537 -9.111,0 0,0.752 c 4.412,0 3.25,2.898 2.699,4.623 -1.217,3.783 -8.033,24.48 -8.033,24.48 l -0.104,0 L 164.59,5.16 c -0.207,-0.594 -0.564,-1.723 -0.564,-2.309 0,-1.023 0.65,-1.562 2.607,-1.562 l 0,-0.752 -10.451,0 0,0.752 c 2.297,0 2.535,1.238 2.994,2.42 l 11.176,31.877 3.203,0 c 0,0 9.498,-28.969 10.295,-31.428 0.75,-2.314 1.893,-2.869 3.742,-2.869 l 0,-0.752 z"
         inkscape:connector-curvature="0"
         style="fill:#000000;stroke:none" />
    </g>
  </g>
</svg>
