<?xml version="1.0" encoding="UTF-8" standalone="no"?>
<svg
   xmlns:dc="http://purl.org/dc/elements/1.1/"
   xmlns:cc="http://creativecommons.org/ns#"
   xmlns:rdf="http://www.w3.org/1999/02/22-rdf-syntax-ns#"
   xmlns:svg="http://www.w3.org/2000/svg"
   xmlns="http://www.w3.org/2000/svg"
   viewBox="0 0 1280 619.72803"
   height="619.72803"
   width="1280"
   xml:space="preserve"
   id="svg2"
   version="1.1"><metadata
     id="metadata8"><rdf:RDF><cc:Work
         rdf:about=""><dc:format>image/svg+xml</dc:format><dc:type
           rdf:resource="http://purl.org/dc/dcmitype/StillImage" /></cc:Work></rdf:RDF></metadata><defs
     id="defs6"><clipPath
       id="clipPath36"
       clipPathUnits="userSpaceOnUse"><path
         id="path34"
         d="M 0,464.796 H 960 V 0 H 0 Z" /></clipPath></defs><g
     transform="matrix(1.3333333,0,0,-1.3333333,0,619.728)"
     id="g10"><g
       transform="translate(124.3236,141.85)"
       id="g12"><path
         id="path14"
         style="fill:#fdd208;fill-opacity:1;fill-rule:nonzero;stroke:none"
         d="M 0,0 -43.21,-87.246 H 43.28 Z" /></g><g
       transform="translate(215.8824,231.2315)"
       id="g16"><path
         id="path18"
         style="fill:#7bc244;fill-opacity:1;fill-rule:nonzero;stroke:none"
         d="M 0,0 81.178,-166.977 163.817,0.037 Z" /></g><g
       transform="translate(397.9101,197.5546)"
       id="g20"><path
         id="path22"
         style="fill:#0992cc;fill-opacity:1;fill-rule:nonzero;stroke:none"
         d="m 0,0 v -55.166 h 52.015 v 55.059 z m 0.037,-142.95 h 51.978 v 54.442 H 0.037 Z" /></g><g
       transform="translate(604.3611,227.2718)"
       id="g24"><path
         id="path26"
         style="fill:#f6a0a5;fill-opacity:1;fill-rule:nonzero;stroke:none"
         d="M 0,0 H -2.482 L -2.719,-206.373 H 98.77 Z" /></g><path
       id="path28"
       style="fill:#f89821;fill-opacity:1;fill-rule:nonzero;stroke:none"
       d="m 833.299,21.047 h 49.311 v 176.51 h -49.311 z" /><g
       id="g30"><g
         clip-path="url(#clipPath36)"
         id="g32"><g
           transform="translate(603.4615,232.7444)"
           id="g38"><path
             id="path40"
             style="fill:#005588;fill-opacity:1;fill-rule:nonzero;stroke:none"
             d="M 0,0 H -40.724 V -213.355 H 102.082 Z M 0.469,-7.544 C 5.507,-18.079 95.638,-206.587 97.527,-210.549 H 0.25 Z" /></g><g
           transform="translate(940.5674,232.9417)"
           id="g42"><path
             id="path44"
             style="fill:#005588;fill-opacity:1;fill-rule:nonzero;stroke:none"
             d="m 0,0 h -164.629 v -37.402 h 55.866 v -176.004 h 52.34 V -37.402 H 0 Z m -59.285,-210.53 h -46.611 v 173.128 h 46.611 z" /></g><path
           id="path46"
           style="fill:#005588;fill-opacity:1;fill-rule:nonzero;stroke:none"
           d="m 705.418,19.391 h 40.955 v 213.392 h -40.955 z" /><g
           transform="translate(382.1487,232.7985)"
           id="g48"><path
             id="path50"
             style="fill:#005588;fill-opacity:1;fill-rule:nonzero;stroke:none"
             d="m 0,0 -211.175,-0.056 104.783,-215.299 z M -84.662,-164.689 -163.325,-2.881 H -4.607 C -6.5,-6.662 -76.335,-147.877 -84.662,-164.689" /></g><g
           transform="translate(523.7761,195.5391)"
           id="g52"><path
             id="path54"
             style="fill:#005588;fill-opacity:1;fill-rule:nonzero;stroke:none"
             d="M 0,0 V 37.402 H -127.362 V -176.367 H 0 v 37.486 h -72.322 v 50.373 H 0 v 37.411 H -72.322 V 0 Z m -75.203,-138.881 h -49.274 v 50.373 h 49.274 z m 0,87.784 h -49.32 l 0.042,51.023 h 49.278 z" /></g><g
           transform="translate(19.4326,19.1008)"
           id="g56"><path
             id="path58"
             style="fill:#005588;fill-opacity:1;fill-rule:nonzero;stroke:none"
             d="m 0,0 h 46.342 l 16.826,33.955 h 83.391 L 163.413,0 h 46.342 L 104.782,215.281 Z m 104.889,118.069 40.26,-81.233 H 64.597 Z" /></g><g
           transform="translate(103.0958,408.3549)"
           id="g60"><path
             id="path62"
             style="fill:#0b7abf;fill-opacity:1;fill-rule:nonzero;stroke:none"
             d="m 0,0 c 0,-13.106 -6.347,-22.036 -22.431,-22.036 h -5.071 v 41.841 c 1.805,0.088 3.503,0.088 5.071,0.088 C -7.163,19.893 0,12.693 0,0 m -16.474,-40.204 c 28.745,0 46.954,14.799 46.954,40.635 0,28.355 -19.48,38.566 -51.218,38.566 -12.252,0 -27.051,-0.899 -37.629,-2.161 V -64.347 h 30.865 v 24.143 z M 397.242,0 c 0,-13.106 -6.361,-22.036 -22.445,-22.036 h -5.085 v 41.841 c 1.81,0.088 3.503,0.088 5.085,0.088 15.249,0 22.445,-7.2 22.445,-19.893 m -16.53,-40.204 c 28.778,0 46.954,14.799 46.954,40.635 0,28.355 -19.443,38.566 -51.176,38.566 -12.28,0 -27.07,-0.899 -37.629,-2.161 V -64.347 h 30.851 v 24.143 z M 467.888,11 c 0,5.474 5.489,8.049 14.368,8.049 9.72,0 20.307,-2.125 27.488,-5.043 l -2.538,21.967 c -8.03,1.707 -15.23,3.024 -28.355,3.024 -24.954,0 -41.878,-9.923 -41.878,-30.535 0,-35.523 48.234,-28.323 48.234,-44.867 0,-6.318 -4.649,-9.723 -16.061,-9.723 -10.156,0 -25.799,3.405 -35.143,8.03 l 3.401,-23.298 c 9.311,-3.401 21.986,-5.02 32.159,-5.02 25.795,0 46.936,8.444 46.936,33.848 0,33.83 -48.611,27.474 -48.611,43.568 M 315.554,36.836 h -30.87 V -64.346 h 30.87 z m -125.196,0 H 159.47 V -64.346 h 30.888 z M 244.09,-43.985 V 36.836 H 213.221 V -64.347 h 55.805 l 4.668,20.362 z M 136.622,36.836 H 105.747 V -3.387 H 73.602 V 36.836 H 42.723 V -64.347 h 30.879 v 39.81 h 32.145 v -39.81 h 30.875 z" /></g><g
           transform="translate(124.3236,141.85)"
           id="g64"><path
             id="path66"
             style="fill:#fdd208;fill-opacity:1;fill-rule:nonzero;stroke:none"
             d="M 0,0 -43.21,-87.246 H 43.28 Z" /></g><g
           transform="translate(215.8824,231.2315)"
           id="g68"><path
             id="path70"
             style="fill:#7bc244;fill-opacity:1;fill-rule:nonzero;stroke:none"
             d="M 0,0 81.178,-166.977 163.817,0.037 Z" /></g><g
           transform="translate(397.9101,197.5546)"
           id="g72"><path
             id="path74"
             style="fill:#0992cc;fill-opacity:1;fill-rule:nonzero;stroke:none"
             d="m 0,0 v -55.166 h 52.015 v 55.059 z m 0.037,-142.95 h 51.978 v 54.442 H 0.037 Z" /></g><g
           transform="translate(604.3611,227.2718)"
           id="g76"><path
             id="path78"
             style="fill:#f6a0a5;fill-opacity:1;fill-rule:nonzero;stroke:none"
             d="M 0,0 H -2.482 L -2.719,-206.373 H 98.77 Z" /></g><path
           id="path80"
           style="fill:#f89821;fill-opacity:1;fill-rule:nonzero;stroke:none"
           d="m 833.299,21.047 h 49.311 v 176.51 h -49.311 z" /><g
           transform="translate(603.4615,232.7444)"
           id="g82"><path
             id="path84"
             style="fill:#005588;fill-opacity:1;fill-rule:nonzero;stroke:none"
             d="M 0,0 H -40.724 V -213.355 H 102.082 Z M 0.469,-7.544 C 5.507,-18.079 95.638,-206.587 97.527,-210.549 H 0.25 Z" /></g><g
           transform="translate(940.5674,232.9417)"
           id="g86"><path
             id="path88"
             style="fill:#005588;fill-opacity:1;fill-rule:nonzero;stroke:none"
             d="m 0,0 h -164.629 v -37.402 h 55.866 v -176.004 h 52.34 V -37.402 H 0 Z m -59.285,-210.53 h -46.611 v 173.128 h 46.611 z" /></g><path
           id="path90"
           style="fill:#005588;fill-opacity:1;fill-rule:nonzero;stroke:none"
           d="m 705.418,19.391 h 40.955 v 213.392 h -40.955 z" /><g
           transform="translate(382.1487,232.7985)"
           id="g92"><path
             id="path94"
             style="fill:#005588;fill-opacity:1;fill-rule:nonzero;stroke:none"
             d="m 0,0 -211.175,-0.056 104.783,-215.299 z M -84.662,-164.689 -163.325,-2.881 H -4.607 C -6.5,-6.662 -76.335,-147.877 -84.662,-164.689" /></g><g
           transform="translate(523.7761,195.5391)"
           id="g96"><path
             id="path98"
             style="fill:#005588;fill-opacity:1;fill-rule:nonzero;stroke:none"
             d="M 0,0 V 37.402 H -127.362 V -176.367 H 0 v 37.486 h -72.322 v 50.373 H 0 v 37.411 H -72.322 V 0 Z m -75.203,-138.881 h -49.274 v 50.373 h 49.274 z m 0,87.784 h -49.32 l 0.042,51.023 h 49.278 z" /></g><g
           transform="translate(19.9369,18.5965)"
           id="g100"><path
             id="path102"
             style="fill:#005588;fill-opacity:1;fill-rule:nonzero;stroke:none"
             d="M 0,0 46.342,0.218 63.01,34.279 146.411,34.641 163.432,0.793 209.755,0.974 103.776,215.786 Z M 104.342,118.575 144.958,37.559 64.425,37.16 Z" /></g><g
           transform="translate(103.0958,408.3549)"
           id="g104"><path
             id="path106"
             style="fill:#0b7abf;fill-opacity:1;fill-rule:nonzero;stroke:none"
             d="m 0,0 c 0,-13.106 -6.347,-22.036 -22.431,-22.036 h -5.071 v 41.841 c 1.805,0.088 3.503,0.088 5.071,0.088 C -7.163,19.893 0,12.693 0,0 m -16.474,-40.204 c 28.745,0 46.954,14.799 46.954,40.635 0,28.355 -19.48,38.566 -51.218,38.566 -12.252,0 -27.051,-0.899 -37.629,-2.161 V -64.347 h 30.865 v 24.143 z M 397.242,0 c 0,-13.106 -6.361,-22.036 -22.445,-22.036 h -5.085 v 41.841 c 1.81,0.088 3.503,0.088 5.085,0.088 15.249,0 22.445,-7.2 22.445,-19.893 m -16.53,-40.204 c 28.778,0 46.954,14.799 46.954,40.635 0,28.355 -19.443,38.566 -51.176,38.566 -12.28,0 -27.07,-0.899 -37.629,-2.161 V -64.347 h 30.851 v 24.143 z M 467.888,11 c 0,5.474 5.489,8.049 14.368,8.049 9.72,0 20.307,-2.125 27.488,-5.043 l -2.538,21.967 c -8.03,1.707 -15.23,3.024 -28.355,3.024 -24.954,0 -41.878,-9.923 -41.878,-30.535 0,-35.523 48.234,-28.323 48.234,-44.867 0,-6.318 -4.649,-9.723 -16.061,-9.723 -10.156,0 -25.799,3.405 -35.143,8.03 l 3.401,-23.298 c 9.311,-3.401 21.986,-5.02 32.159,-5.02 25.795,0 46.936,8.444 46.936,33.848 0,33.83 -48.611,27.474 -48.611,43.568 M 315.554,36.836 h -30.87 V -64.346 h 30.87 z m -125.196,0 H 159.47 V -64.346 h 30.888 z M 244.09,-43.985 V 36.836 H 213.221 V -64.347 h 55.805 l 4.668,20.362 z M 136.622,36.836 H 105.747 V -3.387 H 73.602 V 36.836 H 42.723 V -64.347 h 30.879 v 39.81 h 32.145 v -39.81 h 30.875 z" /></g></g></g></g></svg>