<?xml version="1.0" encoding="utf-8"?>
<!-- Generator: Adobe Illustrator 27.1.1, SVG Export Plug-In . SVG Version: 6.00 Build 0)  -->
<svg version="1.1" id="Capa_1" xmlns="http://www.w3.org/2000/svg" xmlns:xlink="http://www.w3.org/1999/xlink" x="0px" y="0px"
	 viewBox="0 0 2021 628.6" style="enable-background:new 0 0 2021 628.6;" xml:space="preserve">
<g>
	<path d="M678.7,542.7c-15.1-0.4-28-12.8-28-28.1l0-501H485.7v552.3c0,27.1,21.9,49.2,48.8,49.2h288.6c27.1,0,48.8-22.1,48.8-49.2
		V13.6h-165l-0.2,501C706.8,529.9,693.9,542.3,678.7,542.7 M1231.6,13.6H981.7c-29.6,0-53.7,24-53.7,53.9V615h165.3V112.8
		c0.1-15.4,12.6-27.6,27.9-27.6c15.4,0,27.8,11.9,28.2,27.1V615H1314V112.4c0.2-15.2,12.6-27.1,28-27.1c15.3,0,27.9,12.2,28,27.6
		V615h165.3V67.5c0-29.9-24.1-53.9-53.7-53.9L1231.6,13.6z M264.7,113.8c0.1-16.7-13.5-28.6-28-28.6h-28v304.2h28
		c14.6,0,28.1-11.6,28-28.2V113.8z M375.5,463.9H208.7V615h-165V13.6h332.9c29.8,0,53.1,24.2,53.1,54.2v341.9
		C429.6,439.7,405.5,463.9,375.5,463.9"/>
	<path d="M1812.3,389.5V112.6c-0.4-15.3-12.7-27.1-28.1-27.1c-15.2,0-27.8,12.2-28,27.5v276.5L1812.3,389.5z M1812.3,615V464h-56.1
		v151h-165V67.5c0-29.9,24.1-53.9,53.7-53.9h278.7c29.6,0,53.7,24,53.7,53.9V615L1812.3,615z"/>
</g>
</svg>
