<?xml version="1.0" encoding="UTF-8" standalone="no"?>
<!-- Created with Inkscape (http://www.inkscape.org/) -->

<svg
   xmlns:dc="http://purl.org/dc/elements/1.1/"
   xmlns:cc="http://creativecommons.org/ns#"
   xmlns:rdf="http://www.w3.org/1999/02/22-rdf-syntax-ns#"
   xmlns:svg="http://www.w3.org/2000/svg"
   xmlns="http://www.w3.org/2000/svg"
   version="1.1"
   width="400"
   height="220"
   viewBox="0 0 400 220"
   id="Layer_1"
   xml:space="preserve"><metadata
   id="metadata18"><rdf:RDF><cc:Work
       rdf:about=""><dc:format>image/svg+xml</dc:format><dc:type
         rdf:resource="http://purl.org/dc/dcmitype/StillImage" /><dc:title></dc:title></cc:Work></rdf:RDF></metadata><defs
   id="defs16" />
<g
   transform="matrix(1.9260531,0,0,1.8960332,-389.16481,-640.387)"
   id="_x23_231f20ff">
	<path
   d="m 392.326,339.423 c 3.057,-0.384 6.243,0.143 8.929,1.685 3.729,2.067 6.433,5.883 7.107,10.097 0.351,2.375 0.206,4.851 -0.612,7.118 -1.144,3.271 -3.528,6.082 -6.563,7.752 -2.771,1.55 -6.069,2.112 -9.201,1.603 -3.239,-0.51 -6.272,-2.19 -8.434,-4.655 -2.209,-2.484 -3.5,-5.765 -3.566,-9.088 -0.093,-3.138 0.896,-6.292 2.763,-8.815 2.251,-3.085 5.782,-5.212 9.577,-5.697 m 1.244,1.819 c -1.288,0.285 -2.205,1.389 -2.719,2.545 -0.382,0.881 -1.108,1.611 -2.005,1.957 -1.311,0.533 -2.755,-0.006 -4.094,0.349 -1.175,0.34 -2.027,1.584 -1.838,2.805 0.272,1.645 1.595,2.939 1.645,4.645 0.101,0.957 -0.519,1.744 -0.912,2.556 -0.479,0.95 -0.854,2.056 -0.546,3.12 0.462,1.194 1.793,1.915 3.049,1.792 1.315,-0.065 2.787,-0.09 3.848,0.826 0.961,0.97 1.389,2.348 2.39,3.288 0.963,0.89 2.567,0.976 3.61,0.174 1.299,-0.994 1.608,-2.845 3.012,-3.732 1.335,-0.747 2.919,-0.304 4.358,-0.546 1.186,-0.155 2.185,-1.25 2.149,-2.46 -0.006,-1.38 -0.976,-2.459 -1.429,-3.701 -0.444,-0.932 -0.339,-2.052 0.151,-2.943 0.535,-1.081 1.286,-2.18 1.168,-3.441 -0.132,-1.328 -1.37,-2.381 -2.685,-2.406 -1.357,-0.128 -2.907,0.256 -4.065,-0.657 -1.251,-0.833 -1.567,-2.434 -2.669,-3.4 -0.633,-0.607 -1.545,-0.949 -2.418,-0.771 z"
   id="path5" />
	<path
   d="m 274.004,357.675 c 4.297,-0.543 8.752,0.386 12.483,2.584 4.72,2.744 8.24,7.37 9.858,12.564 1.792,5.689 1.37,12.059 -1.229,17.434 -2.224,4.653 -6.094,8.541 -10.851,10.575 -4.2,1.821 -9.038,2.113 -13.422,0.804 -4.504,-1.317 -8.457,-4.282 -11.148,-8.106 -3.166,-4.452 -4.616,-10.047 -4.167,-15.48 0.419,-5.497 2.832,-10.846 6.801,-14.692 3.147,-3.079 7.293,-5.154 11.675,-5.683 m 0.212,11.308 c -2.264,0.516 -4.317,1.83 -5.792,3.615 -1.892,2.261 -2.826,5.27 -2.633,8.207 0.183,3.281 1.815,6.476 4.452,8.459 2.208,1.703 5.125,2.457 7.884,2.003 2.88,-0.441 5.494,-2.188 7.118,-4.595 1.71,-2.486 2.362,-5.647 1.853,-8.614 -0.529,-3.227 -2.488,-6.216 -5.316,-7.882 -2.245,-1.35 -5.014,-1.782 -7.566,-1.193 z"
   id="path7" />
	<path
   d="m 203.732,358.856 c 1.525,-0.006 3.051,-0.009 4.576,0.002 6.281,7.607 12.563,15.214 18.848,22.819 6.294,-7.41 12.569,-14.834 18.867,-22.24 1.473,0.004 2.945,0 4.418,0.004 0.002,13.994 0.002,27.988 0,41.981 -3.978,0.004 -7.955,0.004 -11.93,0 -0.002,-4.813 0,-9.627 -0.002,-14.439 -3.789,4.07 -7.563,8.152 -11.35,12.225 -3.686,-4.167 -7.361,-8.346 -11.047,-12.512 -0.002,4.858 0.002,9.715 -0.002,14.575 -4.125,10e-4 -8.251,0.006 -12.376,-0.003 -0.002,-14.138 -0.002,-28.274 -0.002,-42.412 z"
   id="path9" />
	<path
   d="m 302.742,359.441 c 1.424,-0.006 2.847,0 4.271,-0.004 6.883,6.13 13.75,12.279 20.631,18.411 0.004,-6.09 -0.002,-12.178 0.002,-18.267 3.732,0.006 7.467,-0.027 11.196,0.017 -0.01,13.987 -0.002,27.976 -0.004,41.962 -1.228,0.009 -2.454,0.002 -3.683,0.004 -7.172,-6.373 -14.33,-12.763 -21.505,-19.137 0,6.428 -0.003,12.858 0.002,19.286 -3.638,0.008 -7.273,0.004 -10.911,0.002 0.001,-14.09 0.001,-28.182 0.001,-42.274 z"
   id="path11" />
	<path
   d="m 343.405,359.874 c 10.854,0 21.709,-0.002 32.565,0.002 -0.001,3.342 0.004,6.682 -0.004,10.024 -3.487,0.004 -6.974,-0.002 -10.46,0.002 -0.003,10.605 0,21.21 -0.003,31.815 -3.828,0.004 -7.656,0.004 -11.485,0.002 -0.006,-10.559 0.002,-21.117 -0.004,-31.676 -3.537,-0.004 -7.072,0 -10.609,-0.002 -0.003,-3.389 -0.003,-6.779 0,-10.167 z"
   id="path13" />
	<path
   d="m 361.162,409.246 c 4.58,-0.563 9.225,-0.245 13.776,0.422 -0.342,3.145 -0.682,6.289 -1.034,9.432 -2.186,-0.466 -4.42,-0.719 -6.656,-0.721 -2.834,-0.02 -5.602,0.975 -7.989,2.458 -2.455,1.551 -4.456,3.957 -5.105,6.829 -0.786,3.486 -0.089,7.376 2.169,10.193 2.136,2.644 5.287,4.37 8.582,5.077 3.468,0.543 7.005,0.258 10.477,-0.118 0.041,3.06 0.244,6.127 0.034,9.182 -4.295,0.656 -8.673,0.918 -13.003,0.484 -2.658,-0.325 -5.366,-0.895 -7.68,-2.297 -3.273,-1.649 -6.188,-4.033 -8.392,-6.963 -2.34,-3.109 -3.714,-6.932 -3.851,-10.824 -0.138,-4.08 0.411,-8.288 2.28,-11.964 1.219,-2.428 3.063,-4.504 5.211,-6.151 1.563,-1.21 3.288,-2.186 4.989,-3.183 1.887,-1.095 4.052,-1.571 6.192,-1.856 z"
   id="path15" />
	<path
   d="m 238.732,409.374 c 3.805,-0.009 7.609,-0.005 11.413,-0.002 0.002,10.842 -0.002,21.684 0.002,32.528 3.048,0.022 6.099,-0.036 9.145,0.029 -0.034,3.389 -0.002,6.775 -0.015,10.166 -6.873,0.005 -13.746,0 -20.618,0.002 0.008,-14.242 0.061,-28.482 0.073,-42.723 z"
   id="path17" />
	<path
   d="m 278.167,409.261 c 1.806,-0.006 3.612,-0.002 5.419,-0.002 5.714,14.267 11.415,28.54 17.123,42.808 -4.163,-0.011 -8.325,-0.023 -12.489,-0.025 -2.426,-6.117 -4.832,-12.243 -7.255,-18.36 -2.686,6.131 -5.383,12.254 -8.071,18.382 -3.969,0.015 -7.938,0.023 -11.906,0.033 5.724,-14.282 11.454,-28.558 17.179,-42.836 z"
   id="path19" />
	<path
   d="m 203.46,409.527 c 7.118,-0.002 14.239,-0.011 21.357,0.004 3.153,0.227 6.38,1.735 8.075,4.491 1.609,2.619 1.731,5.877 1.207,8.83 -0.502,2.906 -2.27,5.791 -5.134,6.853 2.935,0.886 5.261,3.391 6.031,6.344 0.676,2.591 0.566,5.386 -0.248,7.933 -0.877,2.743 -2.952,5.022 -5.517,6.297 -1.895,0.954 -3.986,1.549 -6.109,1.663 -6.554,0.004 -13.107,0.004 -19.662,0 -0.002,-14.138 -0.002,-28.277 0,-42.415 m 11.616,7.54 c 0.006,2.857 0.023,5.715 0.025,8.572 1.976,0.029 3.952,0.066 5.929,0.09 1.357,0.017 2.771,-0.709 3.304,-2.004 0.549,-1.343 0.535,-2.916 0.008,-4.263 -0.554,-1.394 -2.027,-2.227 -3.485,-2.27 -1.925,-0.053 -3.853,-0.086 -5.781,-0.125 m -0.298,16.769 c -0.002,2.893 -0.002,5.786 0,8.679 1.951,-0.004 3.902,0 5.851,-0.037 1.646,-0.242 3.29,-1.308 3.801,-2.955 0.447,-1.47 0.222,-3.249 -0.913,-4.356 -1.044,-1.005 -2.541,-1.396 -3.957,-1.421 -1.593,0.025 -3.187,0.052 -4.782,0.09 z"
   id="path21" />
	<path
   d="m 302.506,410.002 c 1.425,-0.005 2.85,-0.003 4.274,-0.003 6.878,6.133 13.749,12.274 20.627,18.409 0.007,-6.088 -0.002,-12.178 0.005,-18.269 3.728,-0.002 7.458,-0.002 11.188,0.002 0.004,13.994 0.002,27.988 0.002,41.981 -1.225,0.005 -2.45,0 -3.675,0.002 -7.175,-6.375 -14.335,-12.766 -21.511,-19.141 -10e-4,6.425 -10e-4,12.852 -10e-4,19.277 -3.636,0.009 -7.272,0.002 -10.907,0.002 -0.002,-14.086 -0.002,-28.173 -0.002,-42.26 z"
   id="path23" />
</g>
</svg>