<?xml version="1.0" encoding="UTF-8" standalone="no"?>
<!-- Created with Inkscape (http://www.inkscape.org/) -->

<svg
   xmlns:dc="http://purl.org/dc/elements/1.1/"
   xmlns:cc="http://creativecommons.org/ns#"
   xmlns:rdf="http://www.w3.org/1999/02/22-rdf-syntax-ns#"
   xmlns:svg="http://www.w3.org/2000/svg"
   xmlns="http://www.w3.org/2000/svg"
   xmlns:sodipodi="http://sodipodi.sourceforge.net/DTD/sodipodi-0.dtd"
   xmlns:inkscape="http://www.inkscape.org/namespaces/inkscape"
   width="260"
   height="51.657658"
   viewBox="0 0 68.791665 13.667756"
   version="1.1"
   id="svg4285"
   inkscape:version="0.92.1 r15371"
   sodipodi:docname="mont-bell company logo.svg">
  <defs
     id="defs4279" />
  <sodipodi:namedview
     id="base"
     pagecolor="#ffffff"
     bordercolor="#666666"
     borderopacity="1.0"
     inkscape:pageopacity="0.0"
     inkscape:pageshadow="2"
     inkscape:zoom="1"
     inkscape:cx="133.10774"
     inkscape:cy="-8.6856546"
     inkscape:document-units="mm"
     inkscape:current-layer="layer1"
     showgrid="false"
     units="px"
     fit-margin-top="5"
     fit-margin-bottom="5"
     fit-margin-right="5"
     fit-margin-left="5"
     inkscape:window-width="1280"
     inkscape:window-height="972"
     inkscape:window-x="-8"
     inkscape:window-y="-8"
     inkscape:window-maximized="1" />
  <metadata
     id="metadata4282">
    <rdf:RDF>
      <cc:Work
         rdf:about="">
        <dc:format>image/svg+xml</dc:format>
        <dc:type
           rdf:resource="http://purl.org/dc/dcmitype/StillImage" />
        <dc:title></dc:title>
      </cc:Work>
    </rdf:RDF>
  </metadata>
  <g
     inkscape:label="Layer 1"
     inkscape:groupmode="layer"
     id="layer1"
     transform="translate(-52.904853,-83.730585)">
    <path
       style="fill:#33576e;fill-opacity:1;fill-rule:nonzero;stroke:none;stroke-width:0.61087054"
       d="m 93.566883,92.997229 c 0.324525,0 0.587008,-0.264866 0.587008,-0.589391 v -0.937784 c 0,-0.324525 -0.262483,-0.589391 -0.587008,-0.589391 h -0.940167 c -0.324526,0 -0.587012,0.264866 -0.587012,0.589391 v 0.937784 c 0,0.324525 0.262486,0.589391 0.587012,0.589391 z m 0,0"
       id="path1973"
       inkscape:connector-curvature="0" />
    <path
       style="fill:#33576e;fill-opacity:1;fill-rule:nonzero;stroke:none;stroke-width:0.61087054"
       d="m 54.781371,90.825777 c -0.329294,-0.133639 -0.553601,-0.178969 -0.553601,-0.493946 0,-0.252937 0.238625,-0.448612 0.718251,-0.701548 l 1.644101,-0.897216 c 0.150334,-0.09068 0.283958,-0.136014 0.388955,-0.136014 0.224304,0 0.255325,0.17896 0.269644,0.493943 l 0.04534,0.79222 c 0.732567,-0.806538 1.465137,-1.212193 2.271674,-1.212193 0.792227,0 1.376849,0.388953 1.85648,1.181173 0.656208,-0.79222 1.255143,-1.181173 2.002028,-1.181173 1.183562,0 1.916131,0.749268 2.333717,2.348034 l 0.434291,1.660806 c 0.283958,1.107201 0.462924,1.780111 0.7612,2.033049 0.255325,0.224305 0.584626,0.300663 0.584626,0.6586 0,0.329293 -0.283962,0.493941 -0.851882,0.493941 H 64.33816 c -0.58462,0 -0.868576,-0.104988 -0.868576,-0.493941 0,-0.224308 0.1193,-0.343618 0.329296,-0.491564 0.269643,-0.181349 0.522581,-0.255325 0.522581,-0.524965 0,-0.283963 -0.133638,-1.092889 -0.508262,-2.37667 -0.329296,-1.166855 -0.58224,-1.734775 -1.226514,-1.734775 -0.596557,0 -1.030843,0.508263 -1.030843,1.37446 v 2.407684 c 0,0.360322 0.09066,0.570308 0.357928,0.749275 0.283964,0.193281 0.553603,0.2243 0.553603,0.596555 0,0.283955 -0.207599,0.493941 -0.567915,0.493941 h -2.705963 c -0.343615,0 -0.553603,-0.193279 -0.553603,-0.493941 0,-0.372255 0.252941,-0.403274 0.539283,-0.596555 0.252937,-0.178967 0.341234,-0.388953 0.341234,-0.749275 v -2.362345 c 0,-0.942556 -0.357934,-1.45082 -0.956875,-1.45082 -0.656208,0 -1.300488,0.672912 -1.300488,1.405481 v 2.407684 c 0,0.360322 0.09067,0.570308 0.343616,0.749275 0.283962,0.193281 0.5536,0.2243 0.5536,0.596555 0,0.300662 -0.2243,0.493941 -0.567913,0.493941 h -2.782325 c -0.343616,0 -0.553601,-0.193279 -0.553601,-0.493941 0,-0.372255 0.269636,-0.403274 0.553601,-0.596555 0.255324,-0.178967 0.329294,-0.388953 0.329294,-0.749275 v -2.572333 c 0,-0.372253 -0.02866,-0.49395 -0.357934,-0.627576"
       id="path1975"
       inkscape:connector-curvature="0" />
    <path
       style="fill:#33576e;fill-opacity:1;fill-rule:nonzero;stroke:none;stroke-width:0.61087054"
       d="m 67.891228,92.426928 c 0,-1.002214 0.360316,-1.913749 1.061865,-2.63438 0.749269,-0.775519 1.646486,-1.13584 2.796643,-1.13584 1.033228,0 2.109409,0.388954 2.887318,1.061865 0.942555,0.808928 1.419798,1.839771 1.419798,3.05197 0,1.95908 -1.510476,3.273882 -3.932481,3.273882 -2.677328,0 -4.233143,-1.419798 -4.233143,-3.617497 m 2.751307,0.911527 c 0.524964,1.09289 1.123901,1.629787 1.870791,1.629787 0.746879,0 1.255143,-0.59894 1.255143,-1.598759 0,-0.62996 -0.19328,-1.450816 -0.64189,-2.33372 -0.479626,-0.928237 -1.226513,-1.450819 -1.854084,-1.450819 -0.703937,0 -1.181178,0.582242 -1.181178,1.555814 0,0.65621 0.178966,1.43411 0.551218,2.197697"
       id="path1977"
       inkscape:connector-curvature="0" />
    <path
       style="fill:#33576e;fill-opacity:1;fill-rule:nonzero;stroke:none;stroke-width:0.61087054"
       d="m 77.42892,90.825777 c -0.329294,-0.133639 -0.5536,-0.178969 -0.5536,-0.493946 0,-0.224305 0.269644,-0.462925 0.763589,-0.732568 l 1.598762,-0.866196 c 0.150317,-0.09068 0.283959,-0.136014 0.388955,-0.136014 0.224304,0 0.255326,0.17896 0.269637,0.493943 l 0.04534,0.868578 c 0.613262,-0.882896 1.107205,-1.288551 1.899431,-1.288551 1.016525,0 1.765794,0.794609 2.154749,2.348034 l 0.417591,1.660806 c 0.269637,1.061862 0.417585,1.734774 0.71825,2.033049 0.224299,0.224305 0.553601,0.300663 0.553601,0.644278 0,0.360323 -0.255326,0.508263 -0.79461,0.508263 h -2.285992 c -0.570309,0 -0.837565,-0.104988 -0.837565,-0.493941 0,-0.224308 0.105,-0.343618 0.312593,-0.491564 0.255325,-0.181349 0.524972,-0.255325 0.524972,-0.524965 0,-0.283963 -0.136014,-1.092889 -0.49395,-2.37667 -0.329306,-1.166855 -0.584631,-1.734775 -1.212203,-1.734775 -0.58224,0 -0.985505,0.491563 -0.985505,1.37446 v 2.407684 c 0,0.360322 0.0883,0.570308 0.343613,0.749275 0.283959,0.193281 0.553602,0.2243 0.553602,0.596555 0,0.300662 -0.224305,0.493941 -0.56792,0.493941 h -2.782324 c -0.343618,0 -0.553602,-0.193279 -0.553602,-0.493941 0,-0.372255 0.269644,-0.403274 0.553602,-0.596555 0.252941,-0.178967 0.326912,-0.388953 0.326912,-0.749275 v -2.572333 c 0,-0.372253 -0.02864,-0.49395 -0.357932,-0.627576"
       id="path1979"
       inkscape:connector-curvature="0" />
    <path
       style="fill:#33576e;fill-opacity:1;fill-rule:nonzero;stroke:none;stroke-width:0.61087054"
       d="m 86.038379,90.078894 c -0.329297,0 -0.491561,-0.119337 -0.491561,-0.374633 0,-0.252944 0.162266,-0.388957 0.343614,-0.598942 l 2.004418,-2.362352 c 0.312595,-0.374636 0.462932,-0.627572 0.656209,-0.627572 0.314984,0 0.374635,0.252936 0.374635,0.806541 v 1.916127 h 2.109416 c 0.193285,0 0.252938,0.02866 0.252938,0.238618 0,0.596555 -0.16465,0.956875 -0.491563,0.956875 h -1.856472 v 3.603182 c 0,0.689614 0.105,1.002206 0.658597,1.002206 0.448606,0 0.971188,-0.567919 1.376843,-0.567919 0.252942,0 0.431903,0.178968 0.431903,0.434292 0,0.6586 -1.030843,1.539108 -2.615288,1.539108 -1.212195,0 -2.154749,-0.7612 -2.154749,-1.434111 0,-0.255326 0.164634,-0.644279 0.164634,-1.22652 v -3.3049 z m 0,0"
       id="path1981"
       inkscape:connector-curvature="0" />
    <path
       style="fill:#33576e;fill-opacity:1;fill-rule:nonzero;stroke:none;stroke-width:0.61087054"
       d="m 95.401881,87.072263 c -0.298275,-0.1193 -0.52258,-0.16465 -0.52258,-0.462925 0,-0.195667 0.238618,-0.405652 0.71825,-0.644277 l 1.539106,-0.792221 c 0.150334,-0.07397 0.269645,-0.119338 0.388953,-0.119338 0.195669,0 0.255325,0.133639 0.255325,0.434295 v 3.872827 c 0.508265,-0.47963 1.061866,-0.689617 1.763415,-0.689617 0.83756,0 1.69182,0.360316 2.34803,1.004594 0.7779,0.746887 1.15254,1.644103 1.15254,2.765621 0,2.078393 -1.39116,3.560232 -3.049578,3.560232 -0.74927,0 -1.467525,-0.269645 -2.200088,-0.823246 l -1.212198,0.703936 c -0.193286,0.1193 -0.357936,0.19328 -0.522584,0.19328 -0.283956,0 -0.372245,-0.150316 -0.372245,-0.462925 v -7.972336 c 0,-0.343615 -0.07636,-0.477243 -0.286346,-0.567921 m 3.755896,7.476006 c 0.999823,0 1.899433,-1.150154 1.899433,-2.765621 0,-1.25515 -0.73496,-2.033054 -1.691828,-2.033054 -1.090501,0 -1.658423,0.792225 -1.658423,2.36235 0,1.615466 0.491561,2.436325 1.450818,2.436325"
       id="path1983"
       inkscape:connector-curvature="0" />
    <path
       style="fill:#33576e;fill-opacity:1;fill-rule:nonzero;stroke:none;stroke-width:0.61087054"
       d="m 108.57378,94.729623 c 0.49394,0 0.97118,-0.150334 1.36253,-0.388954 0.49155,-0.314982 0.79222,-0.553601 1.01413,-0.553601 0.19567,0 0.346,0.133639 0.346,0.343615 0,0.209986 -0.16463,0.493944 -0.49394,0.79222 -0.77791,0.703936 -1.88511,1.121522 -3.00663,1.121522 -2.34803,0 -3.99214,-1.598765 -3.99214,-3.736812 0,-1.018909 0.37226,-1.899424 1.12153,-2.603352 0.71825,-0.672918 1.67512,-1.047553 2.61767,-1.047553 1.18118,0 2.09271,0.419973 2.79426,1.30287 0.47963,0.596559 0.68961,1.226518 0.68961,1.448436 0,0.164634 -0.1193,0.209988 -0.43429,0.314978 l -4.0661,1.331508 c 0.32691,1.090502 1.04516,1.675123 2.04737,1.675123 m -0.3126,-3.12594 c 0.23862,-0.07399 0.35794,-0.209989 0.35794,-0.357935 0,-0.73495 -0.6586,-1.601146 -1.46514,-1.601146 -0.64428,0 -1.12152,0.553601 -1.12152,1.419799 0,0.329293 0.0883,0.718247 0.23862,1.226511 z m 0,0"
       id="path1985"
       inkscape:connector-curvature="0" />
    <path
       style="fill:#33576e;fill-opacity:1;fill-rule:nonzero;stroke:none;stroke-width:0.61087054"
       d="m 112.32013,87.327588 c -0.31498,-0.1217 -0.50826,-0.18135 -0.50826,-0.465312 0,-0.193281 0.19328,-0.372246 0.59895,-0.613253 l 1.71806,-1.06187 c 0.136,-0.0883 0.26964,-0.133638 0.38896,-0.133638 0.22669,0 0.28395,0.133638 0.28395,0.431911 v 8.525939 c 0,0.357927 0.0907,0.567914 0.34361,0.746879 0.26965,0.195675 0.55362,0.255326 0.55362,0.613261 0,0.300664 -0.22432,0.493944 -0.56793,0.493944 h -2.79664 c -0.34361,0 -0.56792,-0.19328 -0.56792,-0.493944 0,-0.357935 0.28396,-0.417586 0.5536,-0.613261 0.25294,-0.178965 0.34362,-0.388952 0.34362,-0.746879 v -6.101548 c 0,-0.374639 -0.0454,-0.465311 -0.34362,-0.582237"
       id="path1987"
       inkscape:connector-curvature="0" />
    <path
       style="fill:#33576e;fill-opacity:1;fill-rule:nonzero;stroke:none;stroke-width:0.61087054"
       d="m 116.99234,87.327588 c -0.3126,-0.1217 -0.50826,-0.18135 -0.50826,-0.465312 0,-0.193281 0.19566,-0.372246 0.59892,-0.613253 l 1.72048,-1.06187 c 0.13361,-0.0883 0.26725,-0.133638 0.38895,-0.133638 0.2243,0 0.28395,0.133638 0.28395,0.431911 v 8.525939 c 0,0.357927 0.0884,0.567914 0.34362,0.746879 0.26964,0.195675 0.5536,0.255326 0.5536,0.613261 0,0.300664 -0.22431,0.493944 -0.56792,0.493944 h -2.79664 c -0.346,0 -0.5703,-0.19328 -0.5703,-0.493944 0,-0.357935 0.28395,-0.417586 0.5536,-0.613261 0.25533,-0.178965 0.34361,-0.388952 0.34361,-0.746879 v -6.101548 c 0,-0.374639 -0.0452,-0.465311 -0.34361,-0.582237"
       id="path1989"
       inkscape:connector-curvature="0" />
  </g>
</svg>
