<?xml version="1.0" encoding="UTF-8" standalone="no"?>
<!-- Created with Inkscape (http://www.inkscape.org/) -->

<svg
   width="71.458862mm"
   height="78.174133mm"
   viewBox="0 0 71.458862 78.174133"
   version="1.1"
   id="svg5"
   xml:space="preserve"
   inkscape:export-filename="Bic Camera Logo.png"
   inkscape:export-xdpi="96"
   inkscape:export-ydpi="96"
   xmlns:inkscape="http://www.inkscape.org/namespaces/inkscape"
   xmlns:sodipodi="http://sodipodi.sourceforge.net/DTD/sodipodi-0.dtd"
   xmlns="http://www.w3.org/2000/svg"
   xmlns:svg="http://www.w3.org/2000/svg"><sodipodi:namedview
     id="namedview7"
     pagecolor="#ffffff"
     bordercolor="#000000"
     borderopacity="0.25"
     inkscape:showpageshadow="2"
     inkscape:pageopacity="0.0"
     inkscape:pagecheckerboard="0"
     inkscape:deskcolor="#d1d1d1"
     inkscape:document-units="mm"
     showgrid="false"
     showguides="false" /><defs
     id="defs2"><style
       id="style2495">
      .cls-1 {
        fill: #0080c0;
      }
    </style></defs><g
     inkscape:label="Layer 1"
     inkscape:groupmode="layer"
     id="layer1"
     transform="translate(276.78602,-158.80328)"><g
       id="g188"
       inkscape:label="202208_tougou"
       transform="matrix(1.861045,0,0,-1.861045,-660.00579,967.4184)"><g
         id="g354"><g
           id="g356"
           clip-path="none"><path
             d="m 214.02182,400.47124 h -1.19917 v 1.98581 h 1.19917 z m 0.39893,0 h 1.20137 v 1.98581 h -1.20137 z m 3.52147,1.98581 h -1.73195 v -1.80861 c 0,-0.39861 -0.0894,-0.4856 -0.50252,-0.4856 h -2.8851 v -1.43014 h 3.29437 c 1.31424,0 1.8252,0.47743 1.8252,1.66408 z"
             style="fill:#e60012;fill-opacity:1;fill-rule:nonzero;stroke:none;stroke-width:0.272666"
             id="path362" /><g
             id="g364"
             transform="matrix(0.27266715,0,0,0.27266715,228.70888,403.43851)"
             style="fill:#e60012;fill-opacity:1"><path
               d="m 0,0 h -2.781 v 3.067 h -8.033 V 0 h -2.018 v -5.242 h 2.018 v -5.522 c 0,-0.978 -0.503,-1.249 -1.26,-1.249 h -0.758 v -5.245 h 3.261 c 4.364,0 6.79,1.209 6.79,6.282 v 5.734 H 0 v -5.421 c 0,-0.954 -0.309,-1.35 -1.297,-1.35 h -0.847 v -5.245 h 4.173 c 3.437,0 5.807,1.773 5.807,6.183 V -5.242 0 Z"
               style="fill:#e60012;fill-opacity:1;fill-rule:nonzero;stroke:none"
               id="path366" /></g><path
             d="m 243.74828,402.84615 h -5.63248 v 1.42877 h 5.63248 z m -5.63248,-0.23368 v -1.4296 h 3.49641 v -0.70401 c 0,-0.25389 -0.081,-0.31602 -0.36974,-0.31602 h -3.12667 v -1.43014 h 4.01394 c 1.10674,0 1.61854,0.57286 1.61854,1.60654 v 0.84363 0.90008 0.52952 z"
             style="fill:#e60012;fill-opacity:1;fill-rule:nonzero;stroke:none;stroke-width:0.272666"
             id="path368" /><g
             id="g370"
             transform="matrix(0.27266715,0,0,0.27266715,237.29798,402.23548)"
             style="fill:#e60012;fill-opacity:1"><path
               d="M 0,0 V 7.479 H -7.839 V -0.856 L -20.666,7.387 V 1.96 c 0,-0.133 0.987,-0.636 1.09,-0.704 0.901,-0.58 1.802,-1.165 2.71,-1.741 2.032,-1.306 4.064,-2.612 6.092,-3.915 0.469,-0.299 0.939,-0.604 1.414,-0.897 -1.308,-1.169 -3.105,-2.304 -6.13,-2.304 h -5.176 v -5.245 h 8.239 c 4.165,0 7.247,1.567 9.134,3.647 C -3.281,-9.182 0,-11.314 0,-11.314 v 5.428 L -1.011,-5.24 C -1.011,-5.24 0,-3.236 0,0"
               style="fill:#e60012;fill-opacity:1;fill-rule:nonzero;stroke:none"
               id="path372" /></g><g
             id="g374"
             transform="matrix(0.27266715,0,0,0.27266715,222.35256,404.27485)"
             style="fill:#e60012;fill-opacity:1"><path
               d="M 0,0 H -3.898 -11.38 V -4.859 -5.95 c 0,-0.817 -0.191,-1.128 -1.009,-1.128 h -0.786 v -4.86 h 3.322 c 4.07,0 5.962,1.654 5.962,5.185 0,0.105 -0.007,1.894 -0.007,1.894 H 0 v -8.614 c 0,-1.507 -0.504,-1.892 -2.078,-1.892 h -11.097 v -4.961 H 2.164 c 3.137,0 5.321,1.383 5.321,4.908 V -4.859 0 Z"
               style="fill:#e60012;fill-opacity:1;fill-rule:nonzero;stroke:none"
               id="path376" /></g><g
             id="g378"
             transform="matrix(0.27266715,0,0,0.27266715,208.24132,400.61677)"
             style="fill:#e60012;fill-opacity:1"><path
               d="M 0,0 C 0,-1.147 0.456,-1.949 1.783,-1.949 H 13.805 V -6.91 c 0,0 -14.784,0.007 -14.876,0.007 -3.207,0 -5.598,1.37 -5.598,4.738 V 13.416 H 0 V 7.13 H 13.805 V 2.171 H 0 Z m 9.547,8.145 h 4.257 v 5.271 H 9.547 Z m -5.577,0 h 4.255 v 5.271 H 3.97 Z"
               style="fill:#e60012;fill-opacity:1;fill-rule:nonzero;stroke:none"
               id="path380" /></g><g
             id="g382"
             transform="translate(222.5864,415.9681)"><path
               d="M 0,0 C 1.02,-0.409 2.84,-0.803 5.669,-0.304 8.105,0.125 8.559,1.389 8.352,2.566 8.13,3.826 6.959,4.15 6.153,4.222 4.368,3.424 2.56,2.84 1.288,2.475 Z"
               style="fill:#e60012;fill-opacity:1;fill-rule:nonzero;stroke:none"
               id="path384" /></g><g
             id="g386"
             transform="translate(225.1276,434.4952)"><path
               d="m 0,0 c -5.399,0 -10.061,-3.159 -12.239,-7.728 5.35,0.944 14.403,2.539 15.609,2.752 1.727,0.304 5.711,0.93 6.329,-2.577 0.444,-2.513 -1.786,-4.508 -4.495,-5.97 1.761,-0.146 3.351,-0.86 3.652,-2.572 0.377,-2.134 -2.037,-3.716 -4.961,-4.232 -3.114,-0.548 -6.265,0.431 -7.015,0.689 l -1.872,-3.598 -3.257,-0.574 6.696,13.434 3.582,0.631 -2.584,-4.963 c 3.101,1.301 7.837,3.735 7.382,6.312 -0.12,0.678 -0.504,1.423 -3.026,0.978 -2.296,-0.405 -15.005,-4.036 -17.274,-4.686 -0.051,-0.475 -0.077,-0.958 -0.077,-1.446 0,-7.484 6.067,-13.551 13.55,-13.551 7.484,0 13.55,6.067 13.55,13.551 C 13.55,-6.067 7.484,0 0,0"
               style="fill:#e60012;fill-opacity:1;fill-rule:nonzero;stroke:none"
               id="path388" /></g><rect
             style="fill:#e60012;fill-opacity:1;stroke-width:0.661688"
             id="rect1715"
             width="38.397175"
             height="0.29335988"
             x="205.91644"
             y="-397.71432"
             transform="scale(1,-1)" /><g
             id="g2535"
             transform="matrix(0.18525586,0,0,-0.18525586,197.62249,398.27528)"
             style="fill:#e60012;fill-opacity:1"><path
               class="cls-1"
               d="M 202.77,17.23 V 15.7 h -4.58 v 15.18 h 4.58 v -8.13 a 5.9,5.9 0 0 1 4.16,-3 c 0.51,-0.11 1,-0.11 1.56,-0.18 v -4.25 a 8.44,8.44 0 0 0 -5.72,1.91"
               id="path2501"
               style="fill:#e60012;fill-opacity:1" /><rect
               class="cls-1"
               x="94.93"
               y="10.28"
               width="4.5799999"
               height="4.5799999"
               id="rect2503"
               style="fill:#e60012;fill-opacity:1" /><rect
               class="cls-1"
               x="94.93"
               y="16.870001"
               width="4.5799999"
               height="14.01"
               id="rect2505"
               style="fill:#e60012;fill-opacity:1" /><path
               class="cls-1"
               d="m 87.59,20.37 v -0.06 c 2.3,-0.77 3.63,-2.22 3.63,-4.81 0,-3.54 -2.86,-5.22 -6.7,-5.22 H 73.4 v 20.6 h 10.32 c 3.69,0 8,-1 8,-6 0,-2.51 -1.41,-4 -4.16,-4.55 m -8.86,-6.2 h 3.4 c 1.83,0 3.6,0.18 3.6,2.07 0,1.89 -1.86,2.18 -3.66,2.18 H 78.73 Z M 82.16,27 h -3.43 v -4.86 h 3.49 c 1.89,0 4,0.21 4,2.45 0,2.24 -2.05,2.41 -4.06,2.41"
               id="path2507"
               style="fill:#e60012;fill-opacity:1" /><path
               class="cls-1"
               d="m 115.28,26.91 a 10,10 0 0 1 -3.56,0.74 c -2.8,0 -4.61,-1.69 -4.61,-4.3 a 4.13,4.13 0 0 1 4.29,-4.43 7.45,7.45 0 0 1 3.7,1 l 0.45,0.24 0.39,-4 -0.27,-0.08 a 16.13,16.13 0 0 0 -4.48,-0.77 c -5.44,0 -8.83,3.06 -8.83,8 0,5.82 4.77,7.89 8.85,7.89 a 16.25,16.25 0 0 0 4.39,-0.59 l 0.35,-0.08 -0.23,-3.82 -0.44,0.16"
               id="path2509"
               style="fill:#e60012;fill-opacity:1" /><path
               class="cls-1"
               d="m 131,27.23 a 6,6 0 0 1 -6.41,-6.39 c 0,-3.77 2.36,-6.56 6,-6.56 a 9.75,9.75 0 0 1 5,1.42 l 0.42,-4.38 a 19.14,19.14 0 0 0 -5.71,-1.05 c -6.34,0 -11,3.52 -11,10.57 0,7.66 5.92,10.39 11,10.39 a 20.11,20.11 0 0 0 5.7,-0.81 l -0.24,-4.24 a 13,13 0 0 1 -4.8,1.05"
               id="path2511"
               style="fill:#e60012;fill-opacity:1" /><path
               class="cls-1"
               d="m 178.62,19.43 a 5.33,5.33 0 0 0 -0.2,-0.81 4.33,4.33 0 0 0 -0.29,-0.69 4.7,4.7 0 0 0 -1.86,-1.93 5.88,5.88 0 0 0 -2.93,-0.71 6.87,6.87 0 0 0 -1.72,0.21 7.27,7.27 0 0 0 -1.5,0.57 6,6 0 0 0 -1.28,0.87 q -0.33,0.3 -0.63,0.63 a 4.49,4.49 0 0 0 -1.7,-1.6 6.16,6.16 0 0 0 -2.89,-0.68 6.79,6.79 0 0 0 -1.71,0.22 7.34,7.34 0 0 0 -1.47,0.56 7.11,7.11 0 0 0 -1.06,0.68 V 15.7 h -4.57 v 15.18 h 4.57 v -9.62 a 4.64,4.64 0 0 1 0.66,-0.59 4.73,4.73 0 0 1 0.88,-0.54 5,5 0 0 1 0.93,-0.35 3.51,3.51 0 0 1 0.88,-0.12 1.93,1.93 0 0 1 1.13,0.31 1.51,1.51 0 0 1 0.5,0.82 3.1,3.1 0 0 1 0.1,0.61 c 0,0.25 0,0.53 0,0.82 v 8.66 h 4.58 v -9.62 a 5.17,5.17 0 0 1 0.65,-0.59 4.8,4.8 0 0 1 0.89,-0.54 5,5 0 0 1 0.93,-0.35 3.45,3.45 0 0 1 0.88,-0.12 1.84,1.84 0 0 1 1.12,0.32 1.49,1.49 0 0 1 0.51,0.81 3.1,3.1 0 0 1 0.1,0.61 c 0,0.25 0,0.53 0,0.82 v 8.66 h 4.58 v -9.31 c 0,-0.44 0,-0.84 0,-1.18 0,-0.34 -0.06,-0.68 -0.11,-1"
               id="path2513"
               style="fill:#e60012;fill-opacity:1" /><path
               class="cls-1"
               d="m 150.12,16.87 a 6.48,6.48 0 0 0 -2.21,-1.13 10.15,10.15 0 0 0 -3,-0.42 12.09,12.09 0 0 0 -5.17,1.35 v 3.86 a 8.48,8.48 0 0 1 4.4,-1.28 3.91,3.91 0 0 1 2.74,0.83 2.24,2.24 0 0 1 0.61,1.59 7.13,7.13 0 0 0 -2.51,-0.54 c -3.83,0 -6.38,2.1 -6.38,5.09 a 4.66,4.66 0 0 0 2,4 6,6 0 0 0 3.55,1 6.74,6.74 0 0 0 3.34,-1.06 v 0.71 h 4.58 v -9.65 a 7.67,7.67 0 0 0 -0.57,-2.6 4.7,4.7 0 0 0 -1.37,-1.75 m -4.83,10.84 c -1.29,0 -2.56,-0.5 -2.56,-1.58 0,-1.08 1.11,-1.53 2.36,-1.53 a 5,5 0 0 1 2.08,0.46 l 0.31,0.14 V 27 a 4.11,4.11 0 0 1 -2.19,0.72"
               id="path2515"
               style="fill:#e60012;fill-opacity:1" /><path
               class="cls-1"
               d="m 223,18.62 a 4.7,4.7 0 0 0 -1.37,-1.75 6.58,6.58 0 0 0 -2.21,-1.13 10.2,10.2 0 0 0 -3,-0.42 12.09,12.09 0 0 0 -5.17,1.35 v 3.86 a 8.43,8.43 0 0 1 4.4,-1.28 3.91,3.91 0 0 1 2.74,0.83 2.24,2.24 0 0 1 0.61,1.59 7.13,7.13 0 0 0 -2.52,-0.54 c -3.82,0 -6.37,2.1 -6.37,5.09 a 4.66,4.66 0 0 0 2,4 6,6 0 0 0 3.55,1 6.67,6.67 0 0 0 3.33,-1.06 v 0.71 h 4.58 v -9.65 a 7.66,7.66 0 0 0 -0.56,-2.6 m -6.2,9.09 c -1.29,0 -2.56,-0.5 -2.56,-1.58 0,-1.08 1.11,-1.53 2.36,-1.53 a 5,5 0 0 1 2.08,0.46 l 0.3,0.14 V 27 a 4.07,4.07 0 0 1 -2.18,0.72"
               id="path2517"
               style="fill:#e60012;fill-opacity:1" /><path
               class="cls-1"
               d="m 193.55,17.16 v 0 a 5.78,5.78 0 0 0 -2.25,-1.4 8.57,8.57 0 0 0 -2.78,-0.44 7.89,7.89 0 0 0 -2.8,0.51 7.1,7.1 0 0 0 -2.43,1.53 7.33,7.33 0 0 0 -1.69,2.58 9.57,9.57 0 0 0 -0.62,3.57 8.65,8.65 0 0 0 0.66,3.55 6.61,6.61 0 0 0 1.83,2.42 7.24,7.24 0 0 0 2.67,1.35 12.11,12.11 0 0 0 3.16,0.4 18,18 0 0 0 3.14,-0.27 11.21,11.21 0 0 0 2.27,-0.59 v -3.73 l -0.3,0.1 a 18.89,18.89 0 0 1 -2.3,0.58 9.86,9.86 0 0 1 -3.87,0 3.86,3.86 0 0 1 -1.32,-0.57 3,3 0 0 1 -0.88,-1 3.06,3.06 0 0 1 -0.34,-1 h 9.76 v -0.42 c 0,-0.35 0,-0.78 0,-1.28 a 10.48,10.48 0 0 0 -0.52,-3.45 6.42,6.42 0 0 0 -1.47,-2.45 m -7.66,4 a 3.47,3.47 0 0 1 0.19,-0.57 2.63,2.63 0 0 1 0.54,-0.84 2.27,2.27 0 0 1 0.8,-0.56 2.74,2.74 0 0 1 2.08,0 2,2 0 0 1 0.72,0.54 2.64,2.64 0 0 1 0.44,0.83 3,3 0 0 1 0.13,0.61 z"
               id="path2519"
               style="fill:#e60012;fill-opacity:1" /></g></g></g></g></g></svg>
