<?xml version="1.0" encoding="UTF-8"?><svg id="a" xmlns="http://www.w3.org/2000/svg" viewBox="0 0 2546.55 541.32"><defs><style>.b{fill:#000;}</style></defs><path class="b" d="M1221.94,515.35h34.73v18.94h-133.29v-18.74h34.24V214.53h-88.61v300.76h38.66v18.95h-138.55v-18.73h34.45c.13-1.95,.32-3.39,.32-4.83,0-97.16-.03-194.33,.05-291.49,0-3.82-.84-5.27-4.96-5.14-9.8,.3-19.61,.1-29.76,.1v-18.97h34.66c0-2.16-.03-3.91,0-5.65,.37-22.64-.01-45.33,1.28-67.92,3.69-64.45,46.22-108.18,104.87-118.55,26.75-4.73,53.21-3.3,78.3,8.16,18.89,8.63,33.67,21.46,39.15,42.59,4.78,18.4-1.92,37.94-16.23,47.51-17.78,11.9-46.81,7.28-52.73-20.06-3.03-14,2.54-25.07,13.6-33.62,2.24-1.73,4.64-3.25,6.99-4.82,3.57-2.39,4.1-5.52,.98-8.27-3.94-3.48-8.03-7.33-12.76-9.28-20.81-8.57-41.98-8.64-62.57,.56-19.23,8.6-29.42,24.76-32.54,44.94-2.18,14.08-3.02,28.46-3.32,42.73-.54,26.16-.24,52.33-.28,78.49,0,.81,.17,1.62,.3,2.84h153.02v320.53Z"/><path class="b" d="M2209.98,26.06h-34.69V7.25h99.08V235.45c.39,.16,.79,.33,1.18,.49,.93-1.37,1.84-2.75,2.78-4.11,14.01-20.27,32.07-34.78,56.64-40.22,34.9-7.72,75.23,11.66,78.1,56.71,.48,7.47,.88,14.95,.89,22.43,.06,79.32,.04,158.64,.04,237.97v6.59h34.75v18.88h-128.99v-18.75c8.04,0,15.99-.31,23.89,.11,5.03,.27,6.37-1.19,6.36-6.33-.18-84.15-.07-168.31-.27-252.46-.02-7.05-1.1-14.28-2.9-21.1-3.66-13.8-14.45-19.21-28.1-15-9.9,3.05-16.84,9.88-22.64,17.98-10.84,15.16-17.62,32.21-18.88,50.66-1.72,25.2-2.35,50.5-2.55,75.77-.38,47.82-.12,95.65-.12,143.48,0,1.99,0,3.97,0,6.73h31.7v18.89h-131.09v-18.51h34.81V26.06Z"/><path class="b" d="M1436.34,25.9h-35.09V6.96h99.81v508.38h34.6v18.93h-98.79v-42l-1.01-.28c-.63,1.39-1.28,2.77-1.9,4.16-5.25,11.74-11.02,23.25-20.97,31.78-17.48,14.99-42.45,16.79-63.73,4.9-17.39-9.72-28.84-24.85-37.67-42.17-11.88-23.31-18.75-48.24-21.46-74.12-2.16-20.63-4.07-41.44-3.85-62.15,.4-38.16,6.62-75.36,24.68-109.69,8.87-16.86,20.25-31.73,35.93-42.85,16.35-11.59,34.08-17.21,54.08-10.94,13.91,4.36,22.9,14.31,29.56,26.72,1.87,3.49,3.49,7.11,5.81,11.86V25.9Zm-.34,336.08c0-8.64,.12-17.29-.02-25.93-.38-23.64-2.7-47.09-8.09-70.13-3.61-15.41-8.23-30.56-18.32-43.23-12.96-16.28-29.16-15-39.82,2.97-7.15,12.06-9.61,25.55-10.57,39.15-1.52,21.39-2.79,42.85-2.89,64.28-.2,47.26-1.46,94.58,3.77,141.69,1.25,11.21,2.77,22.6,8.82,32.39,2.85,4.62,6.89,9.14,11.48,11.9,7.69,4.63,16.71,1.61,24.26-6.77,10.04-11.15,15.21-24.79,19.38-38.86,10.41-35.08,12.09-71.22,12-107.46Z"/><path class="b" d="M1699.7,229.3V26.12h-35.03V7.14h99.28v508.16h34.85v18.94h-98.83v-41.89c-.27-.06-.54-.11-.81-.17-2.34,4.84-4.55,9.75-7.06,14.51-8.16,15.51-18.88,28.38-36.99,32.27-22.63,4.86-42.03-2.09-58.34-17.88-17.84-17.27-27.66-39.2-34.63-62.51-7.9-26.38-12.04-53.46-12.12-80.96-.06-19.59,.08-39.32,2.25-58.75,3.97-35.61,14.54-69.14,37.53-97.57,12.05-14.9,26.52-26.66,45.66-31.28,23.01-5.55,43.68,3.19,55.89,23.55,2.94,4.9,5.38,10.09,8.36,15.73Zm1.15,131.74c-1.28-19.57-2.31-39.17-3.91-58.72-1.67-20.37-5.33-40.39-12.9-59.51-3.63-9.16-8-17.89-15.39-24.74-10.32-9.56-21.84-9.43-30.9,1.32-4.08,4.84-7.96,10.72-9.39,16.73-3.28,13.8-5.9,27.9-7.12,42.02-1.45,16.88-1.59,33.91-1.54,50.88,.15,46.76-1.69,93.58,3.43,140.21,1.38,12.51,3.26,25.07,10.03,36.13,8.8,14.36,23.5,15.67,34.73,3.08,2.42-2.72,4.6-5.71,6.54-8.8,7.77-12.36,12.12-26.11,15.58-40.14,7.98-32.32,9.79-65.28,10.84-98.45Z"/><path class="b" d="M226.27,37.09c4.62-9.24,8.93-17.66,13.02-26.19,1.24-2.6,2.76-3.73,5.73-3.56,4.61,.25,9.25,.07,14.93,.07V165.74h-19.2c-.91-6.5-1.75-13.04-2.76-19.55-4.89-31.59-11.94-62.54-28.31-90.53-6.28-10.74-14.03-20.23-24.67-27.05-19.93-12.77-44.6-9.83-63.61,7.54-16.12,14.72-24.38,33.68-29.35,54.37-5.18,21.56-6.68,43.57-8.1,65.63-3.63,56.06-3.24,112.18-2.74,168.28,.23,25.59,1.92,51.19,3.89,76.72,1.56,20.16,4.01,40.3,7.14,60.28,2.03,12.93,6.71,25.27,14.11,36.35,10.97,16.41,26.46,23.57,45.81,20.99,19.09-2.54,30.01-15.03,35.8-32.57,4.9-14.85,5.65-30.34,5.82-45.76,.35-31.32,.11-62.66,.11-93.98q0-6.33-6.6-6.33c-9.16,0-18.32,0-27.88,0v-19.3h136.83v19.3c-8.94,0-17.59,.22-26.22-.1-4.12-.15-4.98,1.31-4.97,5.14,.13,30.83,.09,61.66,.02,92.48,0,2.09-.14,4.45-1.08,6.23-11.81,22.4-24.61,44.18-42.2,62.66-17.82,18.71-38.97,31.67-65.16,34.27-25.51,2.54-48.7-4.24-69.08-19.92-26.7-20.54-44.57-47.65-57.34-78.37-12.19-29.34-19.71-59.95-24.37-91.35C1.66,322.96-.56,294.62,.12,266.17c1.36-57.18,10.52-112.85,34.77-165.25,12.77-27.59,29.12-52.68,52.45-72.64C107.66,10.9,130.86,.48,157.96,.01c26.22-.45,46.72,10.87,62.97,30.84,1.55,1.91,3.2,3.75,5.34,6.23Z"/><path class="b" d="M849.46,515.68c0-2.84,0-4.79,0-6.74-.01-79.98,.06-159.97-.14-239.95-.03-10.25-.6-20.65-2.46-30.7-3.56-19.22-19.26-25.46-35.83-14.8-12.37,7.96-19.83,19.97-25.7,32.99-6.33,14.04-9.43,28.96-10.3,44.29-3.98,70.58-.99,141.22-1.89,211.82,0,.64,.13,1.29,.28,2.66h31.43v18.95h-131.08v-18.59h34.95V214.28h-34.87v-18.93h99.07v40.29c.38,.19,.77,.37,1.15,.56,1.04-1.48,2.09-2.96,3.11-4.45,11.92-17.4,26.39-31.61,47.17-38.06,17.76-5.51,35.51-5.36,52.69,1.56,21.55,8.69,33.08,26.14,34.6,48.42,1.99,29.02,1.75,58.21,1.87,87.33,.23,59.82,.06,119.64,.06,179.46,0,1.46,.18,2.91,.32,4.94h34.31v18.75h-129.94v-18.45h31.19Z"/><path class="b" d="M329.16,25.94h-34.03V7.28h98.69v508.09h34.45v18.82h-133.1v-18.67h33.99V25.94Z"/><path class="b" d="M653.51,351.18h-145.94c0,8.35-.12,16.28,.02,24.21,.44,24.46,.53,48.93,1.68,73.36,.64,13.53,3.07,26.94,8.57,39.64,14.29,32.97,49.97,35.7,72.33,13.64,13.38-13.2,21.05-29.77,26.64-47.26,4.07-12.74,6.85-25.89,10.22-38.86,.33-1.26,.72-2.51,1.24-4.34,7.04,1.46,13.87,2.87,20.89,4.33-6.4,27.31-12.73,53.87-26.35,77.93-11.63,20.55-27.21,36.8-51.15,42.08-32.3,7.12-60.56-1.71-84.34-24.3-22.16-21.06-34.06-47.9-41.31-77.06-7.57-30.46-8.89-61.33-6.18-92.51,2.45-28.15,8.78-55.24,21.11-80.74,11.97-24.77,28.14-46.09,52.91-59.25,42.91-22.79,95.26-12.49,121.32,39.04,9.33,18.44,14.3,38.1,15.79,58.58,1.22,16.86,1.69,33.77,2.54,51.53Zm-143.95-19.48c1.23,.06,2.52,.18,3.81,.18,23.82,0,47.64-.11,71.46,.11,4.4,.04,5.17-1.56,5.13-5.48-.18-17.82,.28-35.65-.19-53.46-.31-11.76-1.1-23.6-2.98-35.19-2.09-12.85-7.96-23.98-21.8-27.64-14.68-3.88-27.15,.74-37.21,11.98-8.6,9.61-13.2,21.13-14.66,33.7-1.66,14.33-2.75,28.75-3.47,43.16-.54,10.74-.11,21.53-.11,32.64Z"/><path class="b" d="M2156.44,408.56c7.21,1.21,13.88,2.34,21.31,3.59-2.66,11.51-4.94,22.65-7.84,33.63-5.74,21.79-13.52,42.73-28.07,60.43-17.44,21.22-39.98,31.79-67.45,29.57-25.34-2.05-46.04-14.2-63.05-32.74-20.81-22.69-32.09-50.06-38.29-79.76-6.6-31.57-6.85-63.46-2.9-95.29,3.79-30.54,12.19-59.77,29.05-85.97,17.07-26.53,39.97-45.51,71.6-51.38,29.12-5.4,56.6-1.72,79.78,19.05,17.97,16.1,25.51,43.97,17.47,64.97-4.98,13.03-18.29,23.77-36.83,22.44-13.07-.94-25.12-10.4-28.76-23.85-3.96-14.63,.65-27.14,10.16-38.26,.54-.63,1.14-1.21,1.7-1.83,8.32-9.08,6.77-17.24-4.71-22.03-21.28-8.88-52.04-2.93-61.4,30.52-3.28,11.73-5.36,24.08-5.94,36.24-1.62,34.4-2.85,68.85-2.95,103.28-.08,27.73,.84,55.55,5.79,82.98,2.63,14.57,5.86,29.07,16.71,40.26,10.62,10.95,25.58,13.55,40.94,7.22,13.45-5.55,22.03-16.29,29.38-28.17,11.07-17.89,16.47-37.86,20.85-58.17,1.15-5.32,2.2-10.65,3.45-16.69Z"/><path class="b" d="M1918.48,515.52h34.27v18.75h-132.87v-18.68h33.79V214.32h-33.91v-19.08h98.72v320.28Z"/><path class="b" d="M1924.14,68.06c.05,21.26-17.33,38.57-38.66,38.49-21.23-.07-38.58-17.5-38.57-38.73,.02-21.14,17.55-38.82,38.56-38.81,23.51,0,39.96,20.75,38.67,39.06Z"/><path class="b" d="M2505.59,452c22.78,0,41.13,18.19,40.96,40.61-.18,23.14-18.32,41.16-41.21,40.92-23.31-.24-40.88-18.06-40.91-41.2-.03-23.91,20.73-41.22,41.16-40.33Zm-.47,74c14.85,1.48,32.66-10.89,32.85-33.63,.15-18.45-14.57-33.37-32.47-33.37-18.49,0-32.48,14.52-32.5,33.66-.02,21.47,17.65,34.62,32.11,33.34Z"/><path class="b" d="M2513.01,495.87c3.92,6.09,7.5,11.65,11.11,17.26-6.36,2.02-7.59,1.64-10.7-3.26-2.14-3.37-4.4-6.66-6.34-10.14-1.68-3-3.78-4.53-7.84-3.1v17.13h-7.97v-42.74c7.14,0,14.09-.26,21.02,.08,5.93,.29,10.12,4.25,10.73,9.27,1.01,8.33-1.05,12.22-7.74,14.63-.59,.21-1.17,.44-2.28,.86Zm-13.83-5.69c4.24-.41,7.97-.68,11.69-1.15,3.46-.44,5.17-2.99,4.33-5.94-.57-2.02-2.86-4.52-4.8-4.96-3.53-.8-7.36-.23-11.22-.23v12.27Z"/></svg>
